%
M48
M72
T01C0.0236
T02C0.0320
T03C0.0360
T04C0.0394
T05C0.0400
T06C0.0512
T07C0.0590
T08C0.0910
T09C0.1200
T10C0.1260
%
T01
X6692Y4338
X5879Y5900
X6317Y6400
X6317Y7525
X6879Y7463
X6942Y8525
X5192Y8025
X4692Y7838
X4004Y7775
X4129Y8275
X1442Y10088
X942Y8775
X3692Y10775
X4567Y11400
X4504Y12088
X5379Y12213
X6692Y11900
X7129Y12213
X6629Y12775
X7192Y12963
X6442Y13275
X6754Y13900
X7317Y13775
X8754Y15463
X8942Y16775
X9067Y17650
X8317Y17650
X7067Y17463
X6379Y16900
X6004Y17400
X5379Y17650
X5192Y18150
X4692Y18150
X5254Y18963
X5192Y19650
X4504Y19525
X4067Y20150
X4504Y20588
X4942Y21525
X5129Y21963
X5129Y22588
X5317Y23025
X4629Y23713
X5254Y24275
X5692Y24713
X6067Y23900
X6879Y24400
X7192Y24025
X7192Y23525
X7192Y22900
X9067Y23150
X9629Y23150
X10004Y23900
X10442Y22650
X10879Y22213
X11567Y21400
X10067Y20900
X9567Y20775
X9129Y20525
X8754Y20213
X8942Y19400
X9754Y19463
X10317Y19713
X11004Y19025
X11692Y18900
X12067Y18588
X12129Y18088
X11567Y17963
X11629Y17275
X12442Y15838
X13942Y15963
X15754Y15963
X15004Y13838
X16879Y13838
X16879Y12588
X17629Y12588
X18317Y12838
X18817Y13213
X18317Y13650
X19129Y13963
X20942Y12963
X21879Y13525
X22192Y13963
X22879Y14463
X23254Y13900
X22879Y15338
X22192Y15775
X21754Y15963
X21442Y15588
X22504Y16213
X22817Y16588
X23004Y17775
X22067Y19150
X21442Y18963
X21254Y18088
X21254Y17463
X20879Y17150
X20442Y15400
X19129Y15525
X15004Y12588
X14942Y10775
X16879Y10775
X17942Y10838
X18504Y10275
X18754Y11025
X19067Y11463
X18692Y11838
X19004Y12213
X20442Y11275
X21192Y10650
X20817Y10275
X21379Y9775
X20817Y9213
X20629Y8775
X21192Y8900
X21879Y8713
X21942Y9213
X22629Y7838
X22692Y6963
X22192Y6900
X23067Y6525
X21754Y6025
X21067Y5463
X20442Y5275
X19379Y5713
X17879Y6463
X17567Y7525
X19285Y7556
X20254Y7838
X18692Y8775
X18567Y9400
X19067Y9525
X15879Y8838
X15254Y9463
X14317Y9338
X13817Y9213
X13379Y8900
X12567Y9650
X12192Y9275
X10442Y8588
X10004Y8400
X9504Y8900
X9254Y8213
X8754Y8025
X8692Y5838
X11692Y8025
X12754Y7463
X13754Y7275
X14129Y6963
X14629Y7088
X15504Y7525
X16067Y6713
X16442Y6400
X16817Y6088
X19192Y4025
X24442Y5338
X24442Y6900
X25442Y7838
X26504Y8088
X26129Y6963
X25567Y8900
X25504Y10088
X25817Y10463
X28004Y10650
X29067Y9963
X29567Y9588
X30192Y9525
X30754Y10588
X29817Y10775
X29067Y11213
X29004Y11838
X28504Y11713
X28004Y12213
X29879Y13275
X29192Y14275
X27817Y15775
X27067Y16088
X26379Y15900
X26379Y16713
X27067Y16775
X27817Y17400
X27442Y17900
X26629Y17838
X27129Y18525
X27692Y18900
X27754Y19525
X27254Y19900
X26817Y20463
X26504Y19963
X24879Y19963
X23504Y20900
X23004Y20900
X22067Y20900
X20817Y21275
X20754Y20775
X20254Y21713
X20629Y22213
X19754Y22713
X20254Y23213
X19879Y24213
X21192Y24650
X21692Y24775
X20254Y25713
X20879Y26088
X20317Y26525
X19629Y26900
X19942Y27650
X20567Y27400
X21254Y27775
X21067Y28213
X20504Y28963
X22067Y28025
X22567Y27588
X23567Y28088
X24567Y28650
X25067Y29088
X25692Y29588
X25317Y30400
X26067Y31150
X25567Y31900
X28442Y30400
X27129Y28963
X27942Y28338
X29004Y28463
X29004Y26963
X28504Y26900
X28004Y26838
X29504Y26838
X30879Y25713
X31692Y26463
X31817Y24775
X31629Y24213
X32692Y24088
X33067Y24463
X34317Y25275
X35004Y24650
X35379Y25025
X36192Y24650
X36754Y25213
X37504Y23963
X37129Y22025
X36692Y21838
X36254Y21588
X35629Y21338
X35379Y22025
X34692Y22088
X33567Y21400
X34192Y20900
X34067Y20400
X34504Y20213
X35192Y20213
X36067Y19463
X37504Y18775
X37754Y19525
X38254Y19588
X38442Y18588
X37192Y17775
X37004Y17213
X37817Y17400
X38192Y16775
X39567Y17150
X40504Y16275
X41192Y16650
X42567Y17150
X44067Y16025
X42817Y15775
X43067Y15025
X42067Y14150
X42567Y13900
X40817Y13650
X38004Y12775
X37942Y12213
X37754Y11213
X37442Y10838
X37004Y10588
X36504Y10338
X36129Y9338
X35879Y8275
X37567Y9150
X34942Y10150
X34067Y10838
X33067Y10838
X32067Y9900
X33567Y8650
X32754Y7900
X30692Y8150
X29067Y8525
X32754Y4713
X36442Y6463
X37067Y6650
X40317Y7150
X42317Y4275
X48317Y7400
X48004Y9463
X45692Y10025
X45129Y10213
X44317Y9713
X43567Y10213
X43067Y10400
X42504Y10213
X41942Y10588
X41067Y10775
X40067Y10963
X39567Y11275
X39067Y11525
X36442Y11963
X33067Y13275
X32567Y14275
X33754Y14588
X33379Y14963
X31192Y15275
X31192Y13588
X27067Y13838
X26692Y14900
X25754Y12900
X31629Y17025
X31067Y17463
X32817Y17088
X32879Y19338
X32379Y19338
X33379Y19338
X31567Y20213
X30942Y20400
X30754Y19338
X29067Y20088
X28442Y19588
X29004Y18463
X28817Y21088
X28254Y21463
X30067Y21088
X30692Y21400
X31629Y22088
X32629Y22338
X31254Y23088
X30567Y23338
X30067Y24338
X29817Y25275
X28817Y25275
X28817Y24025
X27192Y23088
X26567Y23088
X25942Y23088
X25504Y23650
X25692Y24400
X26067Y24775
X25660Y25338
X25004Y24400
X26879Y25213
X25410Y26869
X24567Y27275
X23004Y26025
X21942Y26400
X18129Y28463
X16692Y27963
X16567Y29150
X16067Y29900
X15254Y29775
X14067Y30088
X13129Y30025
X12629Y29463
X14129Y29088
X13629Y27900
X12317Y28463
X11692Y28463
X11692Y27588
X10754Y26588
X9754Y26838
X10879Y25713
X9629Y24900
X8317Y26400
X7067Y27088
X8442Y27400
X9004Y27900
X6192Y29213
X5692Y29213
X5129Y29213
X4567Y28775
X3379Y29275
X3379Y30275
X3254Y31525
X3254Y32963
X5629Y32900
X6004Y33213
X6192Y32525
X7129Y32213
X7942Y32525
X7567Y33213
X7254Y34213
X11379Y32525
X12379Y32275
X12192Y31588
X12504Y30838
X13129Y31400
X13839Y31338
X15129Y31775
X15817Y33713
X13129Y34213
X12942Y33338
X10754Y30838
X11192Y30525
X10442Y30213
X10067Y31088
X8442Y31338
X6692Y30025
X5692Y27900
X4067Y26525
X3129Y26525
X2442Y26713
X3629Y25650
X4379Y24338
X5942Y25838
X5442Y26213
X6504Y25150
X3754Y22400
X5567Y21400
X5754Y20588
X6129Y20025
X8879Y21650
X9317Y21400
X9567Y22088
X13629Y23713
X13754Y23213
X15129Y23963
X15317Y24463
X16379Y23963
X17192Y23213
X16629Y22213
X17629Y20650
X18567Y19838
X17129Y19213
X16629Y18963
X15629Y18963
X21754Y19900
X24067Y21088
X24879Y22213
X24067Y23025
X22754Y22838
X21442Y22713
X17192Y25150
X14192Y25400
X13879Y25025
X13442Y24713
X19817Y29900
X19754Y33775
X25317Y34025
X31504Y29713
X31692Y28900
X33692Y27463
X33754Y26838
X38192Y22025
X38817Y22025
X37754Y21525
X37192Y20838
X36504Y20775
X38254Y20775
X39067Y21025
X39754Y21713
X40754Y22025
X40067Y20650
X40567Y20275
X41067Y20150
X41567Y19900
X43629Y19400
X44442Y20900
X45442Y20900
X46442Y20650
X47317Y20775
X47317Y20275
X47567Y19400
X47379Y18963
X46129Y19525
X47942Y18275
X47817Y17775
X47817Y16838
X47817Y16338
X46629Y16338
X44442Y17213
X46692Y14525
X48129Y14525
X51692Y14025
X52692Y15025
X53754Y14900
X53692Y16025
X54317Y17025
X56442Y18025
X56442Y18525
X56817Y17525
X57067Y17025
X57317Y16525
X57317Y15775
X58629Y15775
X58629Y14400
X58567Y12900
X58629Y11025
X57754Y9400
X57254Y9650
X57504Y8900
X56692Y7650
X57129Y7338
X57254Y6775
X57567Y6275
X55817Y7338
X54192Y9650
X53254Y9463
X54567Y10463
X55067Y10400
X52754Y10900
X51754Y10900
X53817Y13150
X47442Y11775
X44567Y14025
X49317Y18025
X48942Y18525
X49567Y19400
X50442Y20400
X50942Y21275
X51442Y21275
X52192Y21900
X52526Y22275
X53817Y21275
X54317Y21650
X54942Y21650
X54942Y20650
X54817Y19775
X53192Y19025
X52192Y19025
X49067Y20713
X48504Y21088
X49442Y22275
X50442Y21588
X48442Y23775
X51442Y24525
X52629Y25338
X53192Y25400
X54192Y25650
X55317Y24150
X54692Y23650
X56067Y23650
X56567Y24150
X52692Y27400
X52317Y27838
X51754Y27838
X51692Y28713
X53067Y30275
X54192Y29900
X55692Y29900
X56192Y29900
X58067Y29525
X58567Y28400
X57942Y33650
X57067Y34150
X60058Y33650
X47254Y30900
X45317Y31088
X42129Y26775
X40754Y26775
X41942Y24025
X42442Y22463
X43192Y22275
X43754Y21650
X43442Y21025
X36817Y15775
X48942Y5150
X58629Y17400
X58629Y18900
X57754Y19463
X36692Y35525
X5379Y15963
X4567Y16275
X4254Y17088
X3317Y16775
X3754Y16588
X2504Y15900
X2004Y15025
X2004Y14400
X1129Y14588
X1067Y15838
X1004Y17775
X2754Y17838
X4192Y15275
X4254Y13025
X2004Y12963
X1629Y11525
X6567Y11275
X7067Y10525
X10504Y11963
X12067Y12588
X12442Y10588
X12192Y14775
X3442Y6400
X9692Y2338
X27692Y4275
T02
X26504Y5525
X26504Y6525
X27317Y7713
X28317Y7713
X28317Y8775
X27317Y8775
X29567Y11775
X30567Y11775
X31567Y11775
X32567Y11775
X33567Y11775
X34567Y11775
X34567Y12775
X35567Y12775
X35567Y13775
X34567Y13775
X34567Y14775
X35567Y14775
X35567Y15775
X34567Y15775
X34567Y16775
X35567Y16775
X35567Y17775
X34567Y17775
X34567Y18775
X33567Y18775
X32567Y18775
X32567Y17775
X33567Y17775
X31567Y17775
X30567Y17775
X30567Y18775
X31567Y18775
X29567Y18775
X29567Y17775
X29567Y16775
X28567Y16775
X28567Y17775
X28567Y15775
X29567Y15775
X29567Y14775
X29567Y13775
X28567Y13775
X28567Y14775
X28567Y12775
X29567Y12775
X30567Y12775
X31567Y12775
X32567Y12775
X33567Y12775
X39067Y12775
X40067Y12775
X41067Y12775
X42067Y12775
X43067Y12775
X44067Y12775
X45067Y12775
X46067Y12775
X45067Y11775
X44067Y11775
X43067Y11775
X42067Y11775
X41067Y11775
X40067Y11775
X40067Y13775
X39067Y13775
X39067Y14775
X40067Y14775
X40067Y15775
X39067Y15775
X39067Y16775
X40067Y16775
X40067Y17775
X39067Y17775
X40067Y18775
X41067Y18775
X42067Y18775
X43067Y18775
X44067Y18775
X45067Y18775
X45067Y17775
X46067Y17775
X46067Y16775
X45067Y16775
X44067Y17775
X43067Y17775
X42067Y17775
X41067Y17775
X45067Y15775
X46067Y15775
X46067Y14775
X45067Y14775
X45067Y13775
X46067Y13775
X48754Y13525
X49754Y13525
X49754Y12525
X48754Y12525
X49754Y11525
X50754Y11525
X51754Y11525
X52754Y11525
X53754Y11525
X54754Y11525
X54754Y12525
X55754Y12525
X55754Y13525
X54754Y13525
X53754Y12525
X52754Y12525
X51754Y12525
X50754Y12525
X49754Y14525
X48754Y14525
X48754Y15525
X49754Y15525
X49754Y16525
X48754Y16525
X48754Y17525
X49754Y17525
X49754Y18525
X50754Y18525
X51754Y18525
X51754Y17525
X50754Y17525
X52754Y17525
X53754Y17525
X53754Y18525
X52754Y18525
X54754Y18525
X54754Y17525
X55754Y17525
X55754Y16525
X54754Y16525
X54754Y15525
X55754Y15525
X55754Y14525
X54754Y14525
X47817Y8150
X46817Y8150
X45817Y8150
X44817Y8150
X43817Y8150
X42817Y8150
X41817Y8150
X40817Y8150
X37942Y8275
X36942Y8275
X37254Y5713
X37254Y4713
X40817Y5150
X41817Y5150
X42817Y5150
X43817Y5150
X44817Y5150
X45817Y5150
X46817Y5150
X47817Y5150
X49785Y5338
X50785Y5338
X51785Y5338
X52785Y5338
X53785Y5338
X54785Y5338
X55785Y5338
X56785Y5338
X57785Y5338
X54254Y7900
X53254Y7900
X51942Y23088
X50942Y23088
X49942Y23088
X48942Y23088
X47942Y23088
X46942Y23088
X45942Y23088
X44942Y23088
X43942Y23088
X42942Y23088
X41254Y23088
X40254Y23088
X39254Y23088
X38254Y23088
X37254Y23088
X36254Y23088
X35254Y23088
X34254Y23088
X33254Y23088
X32254Y23088
X32254Y26088
X33254Y26088
X34254Y26088
X35254Y26088
X36254Y26088
X37254Y26088
X38254Y26088
X39254Y26088
X40254Y26088
X41254Y26088
X42942Y26088
X43942Y26088
X44942Y26088
X45942Y26088
X46942Y26088
X47942Y26088
X48942Y26088
X49942Y26088
X50942Y26088
X51942Y26088
X50817Y28150
X49817Y28150
X48817Y28150
X47817Y28150
X46817Y28150
X45817Y28150
X44817Y28150
X43817Y28150
X42817Y28150
X41192Y28150
X40192Y28150
X39192Y28150
X38192Y28150
X37192Y28150
X36192Y28150
X35192Y28150
X34192Y28150
X33192Y28150
X33192Y29775
X34192Y29775
X35192Y29775
X36192Y29775
X37192Y29775
X38192Y29775
X39192Y29775
X40192Y29775
X41192Y29775
X42817Y29775
X43817Y29775
X44817Y29775
X45817Y29775
X46817Y29775
X47817Y29775
X48817Y29775
X49817Y29775
X50817Y29775
X52254Y29900
X52254Y30900
X55660Y31119
X55660Y33119
X60254Y34119
X60254Y35119
X33004Y33056
X33004Y32056
X30254Y31900
X30254Y32869
X30285Y30931
X30254Y29900
X27285Y30931
X27254Y31900
X27254Y32869
X24567Y32963
X23504Y32994
X22535Y32994
X21535Y32994
X20629Y32963
X20629Y31963
X21535Y31994
X22535Y31994
X23504Y31994
X24567Y31963
X27254Y29900
X27129Y27775
X26129Y27775
X28442Y27775
X29442Y27775
X22442Y26869
X21442Y26869
X21442Y25525
X22442Y25525
X22442Y24119
X21442Y24119
X19129Y24213
X18129Y24213
X18129Y23213
X19129Y23213
X19129Y22213
X18129Y22213
X18129Y21213
X17129Y21213
X16129Y21213
X15129Y21213
X14129Y21213
X13129Y21213
X12129Y21213
X13129Y20213
X14129Y20213
X15129Y20213
X16129Y20213
X17129Y20213
X18129Y20213
X19129Y21213
X21442Y21994
X22442Y21994
X19129Y25213
X19129Y26213
X18129Y26213
X17129Y26213
X17129Y27213
X18129Y27213
X16129Y27213
X15129Y27213
X14129Y27213
X13129Y27213
X13129Y26213
X14129Y26213
X15129Y26213
X16129Y26213
X18129Y25213
X13129Y25213
X12129Y25213
X12129Y26213
X12129Y24213
X13129Y24213
X13129Y23213
X12129Y23213
X12129Y22213
X13129Y22213
X7598Y28775
X7598Y31775
X10098Y33025
X11098Y33025
X11942Y33338
X11942Y35338
X11098Y36025
X10098Y36025
X6504Y35744
X6504Y34744
X6504Y33744
X4754Y35338
X3754Y35338
X2567Y35338
X1567Y35338
X1817Y32600
X1817Y30700
X6504Y36744
X6504Y37744
X14504Y37744
X14504Y36744
X14504Y35744
X14504Y34744
X14504Y33744
X16535Y33338
X16535Y32338
X16535Y31338
X17567Y30275
X18067Y29525
X17067Y29525
X18535Y31338
X18535Y32338
X18535Y33338
X2004Y13775
X1004Y13775
X4848Y5900
X4848Y4900
X4848Y3900
X4848Y2900
X7848Y2900
X7848Y3900
X7848Y4900
X7848Y5900
X10379Y5025
X10379Y2025
X16379Y2025
X17817Y2088
X18817Y2088
X18317Y3588
X18317Y4588
X16379Y5025
X21629Y7025
X21629Y8025
T03
X23754Y8400
X23754Y7400
X24754Y7400
X24754Y8400
X24754Y9400
X23754Y9400
X23754Y10400
X23754Y11400
X24754Y11400
X24754Y10400
X24754Y12400
X23754Y12400
X23754Y13400
X23754Y14400
X24754Y14400
X24754Y13400
X24754Y15400
X23754Y15400
X23754Y16400
X23754Y17400
X24754Y17400
X24754Y16400
X24754Y18400
X23754Y18400
X23942Y23838
X23942Y24838
X23942Y25838
X23942Y26838
X23567Y29838
X24567Y29838
X24567Y30838
X23567Y30838
X22567Y30838
X21567Y30838
X20567Y30838
X20567Y29838
X21567Y29838
X22567Y29838
X31035Y28150
X31035Y27150
X39098Y32681
X40098Y32681
X41098Y32681
X42098Y32681
X43098Y32681
X44098Y32681
X45098Y32681
X46098Y32681
X47098Y32681
X48098Y32681
X49098Y32681
X50098Y32681
X50098Y33681
X49098Y33681
X48098Y33681
X47098Y33681
X46098Y33681
X45098Y33681
X44098Y33681
X43098Y33681
X42098Y33681
X41098Y33681
X40098Y33681
X39098Y33681
X55098Y34775
X56098Y34775
X55629Y20400
X56629Y20400
X53942Y20463
X52942Y20463
X51942Y20463
X39129Y7338
X39129Y6338
X39129Y5338
X38817Y3588
X40817Y3588
X41817Y3588
X42817Y3588
X43817Y3588
X44817Y3588
X45817Y3588
X46817Y3588
X47817Y3588
X48817Y3588
X49817Y3588
X50817Y3588
X51817Y3588
X52817Y3588
X53817Y3588
X54817Y3588
X55817Y3588
X56817Y3588
X57817Y3588
X57817Y1900
X56817Y1900
X55817Y1900
X54817Y1900
X53817Y1900
X52817Y1900
X51817Y1900
X50817Y1900
X49817Y1900
X48817Y1900
X47817Y1900
X46817Y1900
X45817Y1900
X44817Y1900
X43817Y1900
X42817Y1900
X41817Y1900
X40817Y1900
X38817Y1900
X35254Y5400
X34254Y5400
X33254Y5400
X32254Y5400
X31254Y5400
X30254Y5400
X28535Y5463
X28535Y6463
X30254Y7275
X31254Y7275
X32254Y7275
X33254Y7275
X34254Y7275
X35254Y7275
X1567Y6088
X1567Y5088
X1442Y20400
X1442Y21400
X1442Y22400
X1442Y23400
X1442Y24400
X1442Y25400
X1442Y26400
X1442Y27400
X9129Y37111
X10109Y37111
X10899Y37111
X11879Y37111
T04
X58034Y30994
X60435Y30994
X59254Y32884
T05
X62432Y33916
X62432Y35696
X24467Y36650
X23567Y36650
X22667Y36650
X21767Y36650
X20867Y36650
X21317Y35650
X20417Y35650
X20867Y34650
X21767Y34650
X22667Y34650
X23567Y34650
X24467Y34650
X24017Y35650
X23117Y35650
X22217Y35650
X24223Y4213
X24223Y2213
X28004Y2150
X29004Y2150
X29004Y3150
X28004Y3150
X30004Y3150
X31004Y3150
X31004Y2150
X30004Y2150
X32004Y2150
X32004Y3150
T06
X57942Y27213
X60192Y27213
X62317Y27213
T07
X61452Y33426
X61452Y36186
T08
X13089Y38181
X7919Y38181
T09
X17647Y35650
X27487Y35650
T10
X2317Y2650
X36067Y2650
X61442Y2650
X52473Y33150
X61442Y38275
X36723Y33181
X2317Y38275
M30
