G75*
G70*
%OFA0B0*%
%FSLAX24Y24*%
%IPPOS*%
%LPD*%
%AMOC8*
5,1,8,0,0,1.08239X$1,22.5*
%
%ADD10C,0.0600*%
%ADD11C,0.0630*%
%ADD12OC8,0.0630*%
%ADD13OC8,0.0600*%
%ADD14C,0.0640*%
%ADD15OC8,0.0640*%
%ADD16C,0.0600*%
%ADD17C,0.1340*%
%ADD18OC8,0.0710*%
%ADD19C,0.0710*%
%ADD20C,0.1080*%
%ADD21OC8,0.1080*%
%ADD22C,0.0830*%
%ADD23OC8,0.0830*%
%ADD24C,0.0680*%
%ADD25C,0.1280*%
%ADD26C,0.0640*%
%ADD27C,0.1390*%
%ADD28C,0.0820*%
%ADD29C,0.0306*%
%ADD30C,0.0867*%
%ADD31OC8,0.0680*%
%ADD32C,0.0965*%
%ADD33C,0.0476*%
D10*
X004588Y002900D02*
X005108Y002900D01*
X005108Y003900D02*
X004588Y003900D01*
X004588Y004900D02*
X005108Y004900D01*
X005108Y005900D02*
X004588Y005900D01*
X007588Y005900D02*
X008108Y005900D01*
X008108Y004900D02*
X007588Y004900D01*
X007588Y003900D02*
X008108Y003900D01*
X008108Y002900D02*
X007588Y002900D01*
X032254Y022828D02*
X032254Y023348D01*
X033254Y023348D02*
X033254Y022828D01*
X034254Y022828D02*
X034254Y023348D01*
X035254Y023348D02*
X035254Y022828D01*
X036254Y022828D02*
X036254Y023348D01*
X037254Y023348D02*
X037254Y022828D01*
X038254Y022828D02*
X038254Y023348D01*
X039254Y023348D02*
X039254Y022828D01*
X040254Y022828D02*
X040254Y023348D01*
X041254Y023348D02*
X041254Y022828D01*
X042942Y022828D02*
X042942Y023348D01*
X043942Y023348D02*
X043942Y022828D01*
X044942Y022828D02*
X044942Y023348D01*
X045942Y023348D02*
X045942Y022828D01*
X046942Y022828D02*
X046942Y023348D01*
X047942Y023348D02*
X047942Y022828D01*
X048942Y022828D02*
X048942Y023348D01*
X049942Y023348D02*
X049942Y022828D01*
X050942Y022828D02*
X050942Y023348D01*
X051942Y023348D02*
X051942Y022828D01*
X051942Y025828D02*
X051942Y026348D01*
X050942Y026348D02*
X050942Y025828D01*
X049942Y025828D02*
X049942Y026348D01*
X048942Y026348D02*
X048942Y025828D01*
X047942Y025828D02*
X047942Y026348D01*
X046942Y026348D02*
X046942Y025828D01*
X045942Y025828D02*
X045942Y026348D01*
X044942Y026348D02*
X044942Y025828D01*
X043942Y025828D02*
X043942Y026348D01*
X042942Y026348D02*
X042942Y025828D01*
X041254Y025828D02*
X041254Y026348D01*
X040254Y026348D02*
X040254Y025828D01*
X039254Y025828D02*
X039254Y026348D01*
X038254Y026348D02*
X038254Y025828D01*
X037254Y025828D02*
X037254Y026348D01*
X036254Y026348D02*
X036254Y025828D01*
X035254Y025828D02*
X035254Y026348D01*
X034254Y026348D02*
X034254Y025828D01*
X033254Y025828D02*
X033254Y026348D01*
X032254Y026348D02*
X032254Y025828D01*
X033192Y027890D02*
X033192Y028410D01*
X034192Y028410D02*
X034192Y027890D01*
X035192Y027890D02*
X035192Y028410D01*
X036192Y028410D02*
X036192Y027890D01*
X037192Y027890D02*
X037192Y028410D01*
X038192Y028410D02*
X038192Y027890D01*
X039192Y027890D02*
X039192Y028410D01*
X040192Y028410D02*
X040192Y027890D01*
X041192Y027890D02*
X041192Y028410D01*
X042817Y028410D02*
X042817Y027890D01*
X043817Y027890D02*
X043817Y028410D01*
X044817Y028410D02*
X044817Y027890D01*
X045817Y027890D02*
X045817Y028410D01*
X046817Y028410D02*
X046817Y027890D01*
X047817Y027890D02*
X047817Y028410D01*
X048817Y028410D02*
X048817Y027890D01*
X049817Y027890D02*
X049817Y028410D01*
X050817Y028410D02*
X050817Y027890D01*
X050817Y029515D02*
X050817Y030035D01*
X049817Y030035D02*
X049817Y029515D01*
X048817Y029515D02*
X048817Y030035D01*
X047817Y030035D02*
X047817Y029515D01*
X046817Y029515D02*
X046817Y030035D01*
X045817Y030035D02*
X045817Y029515D01*
X044817Y029515D02*
X044817Y030035D01*
X043817Y030035D02*
X043817Y029515D01*
X042817Y029515D02*
X042817Y030035D01*
X041192Y030035D02*
X041192Y029515D01*
X040192Y029515D02*
X040192Y030035D01*
X039192Y030035D02*
X039192Y029515D01*
X038192Y029515D02*
X038192Y030035D01*
X037192Y030035D02*
X037192Y029515D01*
X036192Y029515D02*
X036192Y030035D01*
X035192Y030035D02*
X035192Y029515D01*
X034192Y029515D02*
X034192Y030035D01*
X033192Y030035D02*
X033192Y029515D01*
X030545Y030931D02*
X030025Y030931D01*
X029994Y031900D02*
X030514Y031900D01*
X030514Y032869D02*
X029994Y032869D01*
X027514Y032869D02*
X026994Y032869D01*
X026994Y031900D02*
X027514Y031900D01*
X027545Y030931D02*
X027025Y030931D01*
X026994Y029900D02*
X027514Y029900D01*
X029994Y029900D02*
X030514Y029900D01*
X014764Y033744D02*
X014244Y033744D01*
X014244Y034744D02*
X014764Y034744D01*
X014764Y035744D02*
X014244Y035744D01*
X014244Y036744D02*
X014764Y036744D01*
X014764Y037744D02*
X014244Y037744D01*
X006764Y037744D02*
X006244Y037744D01*
X006244Y036744D02*
X006764Y036744D01*
X006764Y035744D02*
X006244Y035744D01*
X006244Y034744D02*
X006764Y034744D01*
X006764Y033744D02*
X006244Y033744D01*
X040817Y008410D02*
X040817Y007890D01*
X041817Y007890D02*
X041817Y008410D01*
X042817Y008410D02*
X042817Y007890D01*
X043817Y007890D02*
X043817Y008410D01*
X044817Y008410D02*
X044817Y007890D01*
X045817Y007890D02*
X045817Y008410D01*
X046817Y008410D02*
X046817Y007890D01*
X047817Y007890D02*
X047817Y008410D01*
X049785Y005598D02*
X049785Y005078D01*
X050785Y005078D02*
X050785Y005598D01*
X051785Y005598D02*
X051785Y005078D01*
X052785Y005078D02*
X052785Y005598D01*
X053785Y005598D02*
X053785Y005078D01*
X054785Y005078D02*
X054785Y005598D01*
X055785Y005598D02*
X055785Y005078D01*
X056785Y005078D02*
X056785Y005598D01*
X057785Y005598D02*
X057785Y005078D01*
X047817Y004890D02*
X047817Y005410D01*
X046817Y005410D02*
X046817Y004890D01*
X045817Y004890D02*
X045817Y005410D01*
X044817Y005410D02*
X044817Y004890D01*
X043817Y004890D02*
X043817Y005410D01*
X042817Y005410D02*
X042817Y004890D01*
X041817Y004890D02*
X041817Y005410D01*
X040817Y005410D02*
X040817Y004890D01*
D11*
X045067Y014775D03*
X054754Y014525D03*
X029567Y015775D03*
X016129Y026213D03*
D12*
X015129Y026213D03*
X015129Y027213D03*
X016129Y027213D03*
X017129Y027213D03*
X018129Y027213D03*
X018129Y026213D03*
X017129Y026213D03*
X018129Y025213D03*
X019129Y025213D03*
X019129Y026213D03*
X019129Y024213D03*
X018129Y024213D03*
X018129Y023213D03*
X019129Y023213D03*
X019129Y022213D03*
X018129Y022213D03*
X018129Y021213D03*
X017129Y021213D03*
X016129Y021213D03*
X015129Y021213D03*
X014129Y021213D03*
X013129Y021213D03*
X012129Y021213D03*
X013129Y020213D03*
X014129Y020213D03*
X015129Y020213D03*
X016129Y020213D03*
X017129Y020213D03*
X018129Y020213D03*
X019129Y021213D03*
X013129Y022213D03*
X013129Y023213D03*
X013129Y024213D03*
X012129Y024213D03*
X012129Y023213D03*
X012129Y022213D03*
X012129Y025213D03*
X012129Y026213D03*
X013129Y026213D03*
X014129Y026213D03*
X014129Y027213D03*
X013129Y027213D03*
X013129Y025213D03*
X028567Y017775D03*
X029567Y017775D03*
X030567Y017775D03*
X031567Y017775D03*
X032567Y017775D03*
X033567Y017775D03*
X034567Y017775D03*
X035567Y017775D03*
X035567Y016775D03*
X034567Y016775D03*
X034567Y015775D03*
X035567Y015775D03*
X035567Y014775D03*
X034567Y014775D03*
X034567Y013775D03*
X035567Y013775D03*
X035567Y012775D03*
X034567Y012775D03*
X034567Y011775D03*
X033567Y011775D03*
X032567Y011775D03*
X032567Y012775D03*
X033567Y012775D03*
X031567Y012775D03*
X030567Y012775D03*
X030567Y011775D03*
X031567Y011775D03*
X029567Y011775D03*
X029567Y012775D03*
X028567Y012775D03*
X028567Y013775D03*
X029567Y013775D03*
X029567Y014775D03*
X028567Y014775D03*
X028567Y015775D03*
X028567Y016775D03*
X029567Y016775D03*
X029567Y018775D03*
X030567Y018775D03*
X031567Y018775D03*
X032567Y018775D03*
X033567Y018775D03*
X034567Y018775D03*
X039067Y017775D03*
X040067Y017775D03*
X041067Y017775D03*
X042067Y017775D03*
X043067Y017775D03*
X044067Y017775D03*
X045067Y017775D03*
X046067Y017775D03*
X046067Y016775D03*
X045067Y016775D03*
X045067Y015775D03*
X046067Y015775D03*
X046067Y014775D03*
X046067Y013775D03*
X045067Y013775D03*
X045067Y012775D03*
X046067Y012775D03*
X045067Y011775D03*
X044067Y011775D03*
X043067Y011775D03*
X043067Y012775D03*
X044067Y012775D03*
X042067Y012775D03*
X041067Y012775D03*
X041067Y011775D03*
X042067Y011775D03*
X040067Y011775D03*
X040067Y012775D03*
X039067Y012775D03*
X039067Y013775D03*
X040067Y013775D03*
X040067Y014775D03*
X039067Y014775D03*
X039067Y015775D03*
X040067Y015775D03*
X040067Y016775D03*
X039067Y016775D03*
X040067Y018775D03*
X041067Y018775D03*
X042067Y018775D03*
X043067Y018775D03*
X044067Y018775D03*
X045067Y018775D03*
X048754Y017525D03*
X049754Y017525D03*
X049754Y018525D03*
X050754Y018525D03*
X051754Y018525D03*
X051754Y017525D03*
X050754Y017525D03*
X049754Y016525D03*
X048754Y016525D03*
X048754Y015525D03*
X049754Y015525D03*
X049754Y014525D03*
X048754Y014525D03*
X048754Y013525D03*
X049754Y013525D03*
X049754Y012525D03*
X048754Y012525D03*
X049754Y011525D03*
X050754Y011525D03*
X051754Y011525D03*
X052754Y011525D03*
X053754Y011525D03*
X054754Y011525D03*
X054754Y012525D03*
X055754Y012525D03*
X055754Y013525D03*
X054754Y013525D03*
X053754Y012525D03*
X052754Y012525D03*
X051754Y012525D03*
X050754Y012525D03*
X054754Y015525D03*
X055754Y015525D03*
X055754Y014525D03*
X055754Y016525D03*
X054754Y016525D03*
X054754Y017525D03*
X055754Y017525D03*
X054754Y018525D03*
X053754Y018525D03*
X052754Y018525D03*
X052754Y017525D03*
X053754Y017525D03*
D13*
X037942Y008275D03*
X036942Y008275D03*
X028317Y008775D03*
X027317Y008775D03*
X027317Y007713D03*
X028317Y007713D03*
X021629Y008025D03*
X021629Y007025D03*
X018317Y004588D03*
X018317Y003588D03*
X018817Y002088D03*
X017817Y002088D03*
X021442Y021994D03*
X022442Y021994D03*
X022442Y024119D03*
X021442Y024119D03*
X021442Y025525D03*
X022442Y025525D03*
X022442Y026869D03*
X021442Y026869D03*
X018067Y029525D03*
X017567Y030275D03*
X017067Y029525D03*
X016535Y031338D03*
X016535Y032338D03*
X016535Y033338D03*
X018535Y033338D03*
X018535Y032338D03*
X018535Y031338D03*
X020629Y031963D03*
X021535Y031994D03*
X022535Y031994D03*
X023504Y031994D03*
X024567Y031963D03*
X024567Y032963D03*
X023504Y032994D03*
X022535Y032994D03*
X021535Y032994D03*
X020629Y032963D03*
X026129Y027775D03*
X027129Y027775D03*
X028442Y027775D03*
X029442Y027775D03*
X033004Y032056D03*
X033004Y033056D03*
X052254Y030900D03*
X052254Y029900D03*
X060254Y034119D03*
X060254Y035119D03*
X011942Y035338D03*
X011098Y036025D03*
X010098Y036025D03*
X011942Y033338D03*
X011098Y033025D03*
X010098Y033025D03*
X007598Y031775D03*
X007598Y028775D03*
D14*
X001722Y027400D02*
X001162Y027400D01*
X001162Y026400D02*
X001722Y026400D01*
X001722Y025400D02*
X001162Y025400D01*
X001162Y024400D02*
X001722Y024400D01*
X001722Y023400D02*
X001162Y023400D01*
X001162Y022400D02*
X001722Y022400D01*
X001722Y021400D02*
X001162Y021400D01*
X001162Y020400D02*
X001722Y020400D01*
X001847Y006088D02*
X001287Y006088D01*
X001287Y005088D02*
X001847Y005088D01*
X028255Y005463D02*
X028815Y005463D01*
X030254Y005680D02*
X030254Y005120D01*
X031254Y005120D02*
X031254Y005680D01*
X032254Y005680D02*
X032254Y005120D01*
X033254Y005120D02*
X033254Y005680D01*
X034254Y005680D02*
X034254Y005120D01*
X035254Y005120D02*
X035254Y005680D01*
X035254Y006995D02*
X035254Y007555D01*
X034254Y007555D02*
X034254Y006995D01*
X033254Y006995D02*
X033254Y007555D01*
X032254Y007555D02*
X032254Y006995D01*
X031254Y006995D02*
X031254Y007555D01*
X030254Y007555D02*
X030254Y006995D01*
X028815Y006463D02*
X028255Y006463D01*
X038849Y006338D02*
X039409Y006338D01*
X039409Y005338D02*
X038849Y005338D01*
X038817Y003868D02*
X038817Y003308D01*
X038817Y002180D02*
X038817Y001620D01*
X040817Y001620D02*
X040817Y002180D01*
X041817Y002180D02*
X041817Y001620D01*
X042817Y001620D02*
X042817Y002180D01*
X043817Y002180D02*
X043817Y001620D01*
X044817Y001620D02*
X044817Y002180D01*
X045817Y002180D02*
X045817Y001620D01*
X046817Y001620D02*
X046817Y002180D01*
X047817Y002180D02*
X047817Y001620D01*
X048817Y001620D02*
X048817Y002180D01*
X049817Y002180D02*
X049817Y001620D01*
X050817Y001620D02*
X050817Y002180D01*
X051817Y002180D02*
X051817Y001620D01*
X052817Y001620D02*
X052817Y002180D01*
X053817Y002180D02*
X053817Y001620D01*
X054817Y001620D02*
X054817Y002180D01*
X055817Y002180D02*
X055817Y001620D01*
X056817Y001620D02*
X056817Y002180D01*
X057817Y002180D02*
X057817Y001620D01*
X057817Y003308D02*
X057817Y003868D01*
X056817Y003868D02*
X056817Y003308D01*
X055817Y003308D02*
X055817Y003868D01*
X054817Y003868D02*
X054817Y003308D01*
X053817Y003308D02*
X053817Y003868D01*
X052817Y003868D02*
X052817Y003308D01*
X051817Y003308D02*
X051817Y003868D01*
X050817Y003868D02*
X050817Y003308D01*
X049817Y003308D02*
X049817Y003868D01*
X048817Y003868D02*
X048817Y003308D01*
X047817Y003308D02*
X047817Y003868D01*
X046817Y003868D02*
X046817Y003308D01*
X045817Y003308D02*
X045817Y003868D01*
X044817Y003868D02*
X044817Y003308D01*
X043817Y003308D02*
X043817Y003868D01*
X042817Y003868D02*
X042817Y003308D01*
X041817Y003308D02*
X041817Y003868D01*
X040817Y003868D02*
X040817Y003308D01*
X039409Y007338D02*
X038849Y007338D01*
X051942Y020183D02*
X051942Y020743D01*
X052942Y020743D02*
X052942Y020183D01*
X053942Y020183D02*
X053942Y020743D01*
X055629Y020680D02*
X055629Y020120D01*
X056629Y020120D02*
X056629Y020680D01*
X056098Y034495D02*
X056098Y035055D01*
X055098Y035055D02*
X055098Y034495D01*
X031315Y028150D02*
X030755Y028150D01*
X030755Y027150D02*
X031315Y027150D01*
X024222Y026838D02*
X023662Y026838D01*
X023662Y025838D02*
X024222Y025838D01*
X024222Y024838D02*
X023662Y024838D01*
X023662Y023838D02*
X024222Y023838D01*
D15*
X023754Y018400D03*
X024754Y018400D03*
X024754Y017400D03*
X023754Y017400D03*
X023754Y016400D03*
X023754Y015400D03*
X024754Y015400D03*
X024754Y016400D03*
X024754Y014400D03*
X023754Y014400D03*
X023754Y013400D03*
X023754Y012400D03*
X024754Y012400D03*
X024754Y013400D03*
X024754Y011400D03*
X023754Y011400D03*
X023754Y010400D03*
X023754Y009400D03*
X024754Y009400D03*
X024754Y010400D03*
X024754Y008400D03*
X023754Y008400D03*
X023754Y007400D03*
X024754Y007400D03*
X024567Y029838D03*
X023567Y029838D03*
X022567Y029838D03*
X021567Y029838D03*
X020567Y029838D03*
X020567Y030838D03*
X021567Y030838D03*
X022567Y030838D03*
X023567Y030838D03*
X024567Y030838D03*
X039098Y032681D03*
X040098Y032681D03*
X041098Y032681D03*
X042098Y032681D03*
X043098Y032681D03*
X044098Y032681D03*
X045098Y032681D03*
X046098Y032681D03*
X047098Y032681D03*
X048098Y032681D03*
X049098Y032681D03*
X050098Y032681D03*
X050098Y033681D03*
X049098Y033681D03*
X048098Y033681D03*
X047098Y033681D03*
X046098Y033681D03*
X045098Y033681D03*
X044098Y033681D03*
X043098Y033681D03*
X042098Y033681D03*
X041098Y033681D03*
X040098Y033681D03*
X039098Y033681D03*
D16*
X002004Y013775D03*
X001004Y013775D03*
X010379Y005025D03*
X010379Y002025D03*
X016379Y002025D03*
X016379Y005025D03*
X001817Y030700D03*
X001817Y032600D03*
D17*
X002317Y002650D03*
X036067Y002650D03*
X061442Y002650D03*
X052473Y033150D03*
X061442Y038275D03*
X036723Y033181D03*
X002317Y038275D03*
D18*
X002567Y035338D03*
X004754Y035338D03*
X037254Y005713D03*
X026504Y005525D03*
X054254Y007900D03*
D19*
X053254Y007900D03*
X037254Y004713D03*
X026504Y006525D03*
X003754Y035338D03*
X001567Y035338D03*
D20*
X024223Y004213D03*
D21*
X024223Y002213D03*
D22*
X055660Y033119D03*
D23*
X055660Y031119D03*
D24*
X024467Y034650D03*
X023567Y034650D03*
X022667Y034650D03*
X021767Y034650D03*
X020867Y034650D03*
X021317Y035650D03*
X020417Y035650D03*
X020867Y036650D03*
X021767Y036650D03*
X022667Y036650D03*
X023567Y036650D03*
X024467Y036650D03*
X024017Y035650D03*
X023117Y035650D03*
X022217Y035650D03*
D25*
X017647Y035650D03*
X027487Y035650D03*
D26*
X011879Y037111D03*
X010899Y037111D03*
X010109Y037111D03*
X009129Y037111D03*
D27*
X007919Y038181D03*
X013089Y038181D03*
D28*
X028004Y003150D03*
X029004Y003150D03*
X029004Y002150D03*
X028004Y002150D03*
X030004Y002150D03*
X031004Y002150D03*
X031004Y003150D03*
X030004Y003150D03*
X032004Y003150D03*
X032004Y002150D03*
D29*
X062922Y010737D02*
X062922Y011451D01*
X062922Y010737D02*
X059148Y010737D01*
X059148Y011451D01*
X062922Y011451D01*
X062922Y011042D02*
X059148Y011042D01*
X059148Y011347D02*
X062922Y011347D01*
X062922Y012297D02*
X062922Y013011D01*
X062922Y012297D02*
X059148Y012297D01*
X059148Y013011D01*
X062922Y013011D01*
X062922Y012602D02*
X059148Y012602D01*
X059148Y012907D02*
X062922Y012907D01*
X062922Y013857D02*
X062922Y014571D01*
X062922Y013857D02*
X059148Y013857D01*
X059148Y014571D01*
X062922Y014571D01*
X062922Y014162D02*
X059148Y014162D01*
X059148Y014467D02*
X062922Y014467D01*
X062922Y015417D02*
X062922Y016131D01*
X062922Y015417D02*
X059148Y015417D01*
X059148Y016131D01*
X062922Y016131D01*
X062922Y015722D02*
X059148Y015722D01*
X059148Y016027D02*
X062922Y016027D01*
X062922Y016977D02*
X062922Y017691D01*
X062922Y016977D02*
X059148Y016977D01*
X059148Y017691D01*
X062922Y017691D01*
X062922Y017282D02*
X059148Y017282D01*
X059148Y017587D02*
X062922Y017587D01*
X062922Y018537D02*
X062922Y019251D01*
X062922Y018537D02*
X059148Y018537D01*
X059148Y019251D01*
X062922Y019251D01*
X062922Y018842D02*
X059148Y018842D01*
X059148Y019147D02*
X062922Y019147D01*
X053504Y039787D02*
X052790Y039787D01*
X053504Y039787D02*
X053504Y036013D01*
X052790Y036013D01*
X052790Y039787D01*
X052790Y036318D02*
X053504Y036318D01*
X053504Y036623D02*
X052790Y036623D01*
X052790Y036928D02*
X053504Y036928D01*
X053504Y037233D02*
X052790Y037233D01*
X052790Y037538D02*
X053504Y037538D01*
X053504Y037843D02*
X052790Y037843D01*
X052790Y038148D02*
X053504Y038148D01*
X053504Y038453D02*
X052790Y038453D01*
X052790Y038758D02*
X053504Y038758D01*
X053504Y039063D02*
X052790Y039063D01*
X052790Y039368D02*
X053504Y039368D01*
X053504Y039673D02*
X052790Y039673D01*
X051944Y039787D02*
X051230Y039787D01*
X051944Y039787D02*
X051944Y036013D01*
X051230Y036013D01*
X051230Y039787D01*
X051230Y036318D02*
X051944Y036318D01*
X051944Y036623D02*
X051230Y036623D01*
X051230Y036928D02*
X051944Y036928D01*
X051944Y037233D02*
X051230Y037233D01*
X051230Y037538D02*
X051944Y037538D01*
X051944Y037843D02*
X051230Y037843D01*
X051230Y038148D02*
X051944Y038148D01*
X051944Y038453D02*
X051230Y038453D01*
X051230Y038758D02*
X051944Y038758D01*
X051944Y039063D02*
X051230Y039063D01*
X051230Y039368D02*
X051944Y039368D01*
X051944Y039673D02*
X051230Y039673D01*
X050384Y039787D02*
X049670Y039787D01*
X050384Y039787D02*
X050384Y036013D01*
X049670Y036013D01*
X049670Y039787D01*
X049670Y036318D02*
X050384Y036318D01*
X050384Y036623D02*
X049670Y036623D01*
X049670Y036928D02*
X050384Y036928D01*
X050384Y037233D02*
X049670Y037233D01*
X049670Y037538D02*
X050384Y037538D01*
X050384Y037843D02*
X049670Y037843D01*
X049670Y038148D02*
X050384Y038148D01*
X050384Y038453D02*
X049670Y038453D01*
X049670Y038758D02*
X050384Y038758D01*
X050384Y039063D02*
X049670Y039063D01*
X049670Y039368D02*
X050384Y039368D01*
X050384Y039673D02*
X049670Y039673D01*
X048824Y039787D02*
X048110Y039787D01*
X048824Y039787D02*
X048824Y036013D01*
X048110Y036013D01*
X048110Y039787D01*
X048110Y036318D02*
X048824Y036318D01*
X048824Y036623D02*
X048110Y036623D01*
X048110Y036928D02*
X048824Y036928D01*
X048824Y037233D02*
X048110Y037233D01*
X048110Y037538D02*
X048824Y037538D01*
X048824Y037843D02*
X048110Y037843D01*
X048110Y038148D02*
X048824Y038148D01*
X048824Y038453D02*
X048110Y038453D01*
X048110Y038758D02*
X048824Y038758D01*
X048824Y039063D02*
X048110Y039063D01*
X048110Y039368D02*
X048824Y039368D01*
X048824Y039673D02*
X048110Y039673D01*
X047264Y039787D02*
X046550Y039787D01*
X047264Y039787D02*
X047264Y036013D01*
X046550Y036013D01*
X046550Y039787D01*
X046550Y036318D02*
X047264Y036318D01*
X047264Y036623D02*
X046550Y036623D01*
X046550Y036928D02*
X047264Y036928D01*
X047264Y037233D02*
X046550Y037233D01*
X046550Y037538D02*
X047264Y037538D01*
X047264Y037843D02*
X046550Y037843D01*
X046550Y038148D02*
X047264Y038148D01*
X047264Y038453D02*
X046550Y038453D01*
X046550Y038758D02*
X047264Y038758D01*
X047264Y039063D02*
X046550Y039063D01*
X046550Y039368D02*
X047264Y039368D01*
X047264Y039673D02*
X046550Y039673D01*
X045704Y039787D02*
X044990Y039787D01*
X045704Y039787D02*
X045704Y036013D01*
X044990Y036013D01*
X044990Y039787D01*
X044990Y036318D02*
X045704Y036318D01*
X045704Y036623D02*
X044990Y036623D01*
X044990Y036928D02*
X045704Y036928D01*
X045704Y037233D02*
X044990Y037233D01*
X044990Y037538D02*
X045704Y037538D01*
X045704Y037843D02*
X044990Y037843D01*
X044990Y038148D02*
X045704Y038148D01*
X045704Y038453D02*
X044990Y038453D01*
X044990Y038758D02*
X045704Y038758D01*
X045704Y039063D02*
X044990Y039063D01*
X044990Y039368D02*
X045704Y039368D01*
X045704Y039673D02*
X044990Y039673D01*
X044144Y039787D02*
X043430Y039787D01*
X044144Y039787D02*
X044144Y036013D01*
X043430Y036013D01*
X043430Y039787D01*
X043430Y036318D02*
X044144Y036318D01*
X044144Y036623D02*
X043430Y036623D01*
X043430Y036928D02*
X044144Y036928D01*
X044144Y037233D02*
X043430Y037233D01*
X043430Y037538D02*
X044144Y037538D01*
X044144Y037843D02*
X043430Y037843D01*
X043430Y038148D02*
X044144Y038148D01*
X044144Y038453D02*
X043430Y038453D01*
X043430Y038758D02*
X044144Y038758D01*
X044144Y039063D02*
X043430Y039063D01*
X043430Y039368D02*
X044144Y039368D01*
X044144Y039673D02*
X043430Y039673D01*
X042584Y039787D02*
X041870Y039787D01*
X042584Y039787D02*
X042584Y036013D01*
X041870Y036013D01*
X041870Y039787D01*
X041870Y036318D02*
X042584Y036318D01*
X042584Y036623D02*
X041870Y036623D01*
X041870Y036928D02*
X042584Y036928D01*
X042584Y037233D02*
X041870Y037233D01*
X041870Y037538D02*
X042584Y037538D01*
X042584Y037843D02*
X041870Y037843D01*
X041870Y038148D02*
X042584Y038148D01*
X042584Y038453D02*
X041870Y038453D01*
X041870Y038758D02*
X042584Y038758D01*
X042584Y039063D02*
X041870Y039063D01*
X041870Y039368D02*
X042584Y039368D01*
X042584Y039673D02*
X041870Y039673D01*
X041024Y039787D02*
X040310Y039787D01*
X041024Y039787D02*
X041024Y036013D01*
X040310Y036013D01*
X040310Y039787D01*
X040310Y036318D02*
X041024Y036318D01*
X041024Y036623D02*
X040310Y036623D01*
X040310Y036928D02*
X041024Y036928D01*
X041024Y037233D02*
X040310Y037233D01*
X040310Y037538D02*
X041024Y037538D01*
X041024Y037843D02*
X040310Y037843D01*
X040310Y038148D02*
X041024Y038148D01*
X041024Y038453D02*
X040310Y038453D01*
X040310Y038758D02*
X041024Y038758D01*
X041024Y039063D02*
X040310Y039063D01*
X040310Y039368D02*
X041024Y039368D01*
X041024Y039673D02*
X040310Y039673D01*
X039464Y039787D02*
X038750Y039787D01*
X039464Y039787D02*
X039464Y036013D01*
X038750Y036013D01*
X038750Y039787D01*
X038750Y036318D02*
X039464Y036318D01*
X039464Y036623D02*
X038750Y036623D01*
X038750Y036928D02*
X039464Y036928D01*
X039464Y037233D02*
X038750Y037233D01*
X038750Y037538D02*
X039464Y037538D01*
X039464Y037843D02*
X038750Y037843D01*
X038750Y038148D02*
X039464Y038148D01*
X039464Y038453D02*
X038750Y038453D01*
X038750Y038758D02*
X039464Y038758D01*
X039464Y039063D02*
X038750Y039063D01*
X038750Y039368D02*
X039464Y039368D01*
X039464Y039673D02*
X038750Y039673D01*
X037904Y039787D02*
X037190Y039787D01*
X037904Y039787D02*
X037904Y036013D01*
X037190Y036013D01*
X037190Y039787D01*
X037190Y036318D02*
X037904Y036318D01*
X037904Y036623D02*
X037190Y036623D01*
X037190Y036928D02*
X037904Y036928D01*
X037904Y037233D02*
X037190Y037233D01*
X037190Y037538D02*
X037904Y037538D01*
X037904Y037843D02*
X037190Y037843D01*
X037190Y038148D02*
X037904Y038148D01*
X037904Y038453D02*
X037190Y038453D01*
X037190Y038758D02*
X037904Y038758D01*
X037904Y039063D02*
X037190Y039063D01*
X037190Y039368D02*
X037904Y039368D01*
X037904Y039673D02*
X037190Y039673D01*
X036344Y039787D02*
X035630Y039787D01*
X036344Y039787D02*
X036344Y036013D01*
X035630Y036013D01*
X035630Y039787D01*
X035630Y036318D02*
X036344Y036318D01*
X036344Y036623D02*
X035630Y036623D01*
X035630Y036928D02*
X036344Y036928D01*
X036344Y037233D02*
X035630Y037233D01*
X035630Y037538D02*
X036344Y037538D01*
X036344Y037843D02*
X035630Y037843D01*
X035630Y038148D02*
X036344Y038148D01*
X036344Y038453D02*
X035630Y038453D01*
X035630Y038758D02*
X036344Y038758D01*
X036344Y039063D02*
X035630Y039063D01*
X035630Y039368D02*
X036344Y039368D01*
X036344Y039673D02*
X035630Y039673D01*
D30*
X058034Y031387D02*
X058034Y030600D01*
X060435Y030600D02*
X060435Y031387D01*
X059648Y032884D02*
X058860Y032884D01*
X057942Y027606D02*
X057942Y026819D01*
X060192Y026819D02*
X060192Y027606D01*
X062317Y027606D02*
X062317Y026819D01*
D31*
X062432Y033916D03*
X062432Y035696D03*
D32*
X061452Y036186D03*
X061452Y033426D03*
D33*
X060058Y033650D03*
X057942Y033650D03*
X057067Y034150D03*
X056192Y029900D03*
X055692Y029900D03*
X054192Y029900D03*
X053067Y030275D03*
X051692Y028713D03*
X051754Y027838D03*
X052317Y027838D03*
X052692Y027400D03*
X054192Y025650D03*
X053192Y025400D03*
X052629Y025338D03*
X051442Y024525D03*
X052526Y022275D03*
X052192Y021900D03*
X051442Y021275D03*
X050942Y021275D03*
X050442Y021588D03*
X049442Y022275D03*
X048504Y021088D03*
X049067Y020713D03*
X050442Y020400D03*
X049567Y019400D03*
X048942Y018525D03*
X049317Y018025D03*
X047942Y018275D03*
X047817Y017775D03*
X047817Y016838D03*
X047817Y016338D03*
X046629Y016338D03*
X044442Y017213D03*
X044067Y016025D03*
X042817Y015775D03*
X043067Y015025D03*
X042067Y014150D03*
X042567Y013900D03*
X040817Y013650D03*
X038004Y012775D03*
X037942Y012213D03*
X037754Y011213D03*
X037442Y010838D03*
X037004Y010588D03*
X036504Y010338D03*
X036129Y009338D03*
X035879Y008275D03*
X037567Y009150D03*
X034942Y010150D03*
X034067Y010838D03*
X033067Y010838D03*
X032067Y009900D03*
X030754Y010588D03*
X029817Y010775D03*
X029067Y011213D03*
X029004Y011838D03*
X028504Y011713D03*
X028004Y012213D03*
X029879Y013275D03*
X029192Y014275D03*
X027817Y015775D03*
X027067Y016088D03*
X026379Y015900D03*
X026379Y016713D03*
X027067Y016775D03*
X027817Y017400D03*
X027442Y017900D03*
X026629Y017838D03*
X027129Y018525D03*
X027692Y018900D03*
X027754Y019525D03*
X027254Y019900D03*
X026817Y020463D03*
X026504Y019963D03*
X024879Y019963D03*
X023504Y020900D03*
X023004Y020900D03*
X022067Y020900D03*
X020817Y021275D03*
X020754Y020775D03*
X020254Y021713D03*
X020629Y022213D03*
X019754Y022713D03*
X020254Y023213D03*
X019879Y024213D03*
X021192Y024650D03*
X021692Y024775D03*
X020254Y025713D03*
X020879Y026088D03*
X020317Y026525D03*
X019629Y026900D03*
X019942Y027650D03*
X020567Y027400D03*
X021254Y027775D03*
X021067Y028213D03*
X020504Y028963D03*
X022067Y028025D03*
X022567Y027588D03*
X023567Y028088D03*
X024567Y028650D03*
X025067Y029088D03*
X025692Y029588D03*
X025317Y030400D03*
X026067Y031150D03*
X025567Y031900D03*
X028442Y030400D03*
X027129Y028963D03*
X027942Y028338D03*
X029004Y028463D03*
X029004Y026963D03*
X028504Y026900D03*
X028004Y026838D03*
X029504Y026838D03*
X030879Y025713D03*
X031692Y026463D03*
X031817Y024775D03*
X031629Y024213D03*
X032692Y024088D03*
X033067Y024463D03*
X034317Y025275D03*
X035004Y024650D03*
X035379Y025025D03*
X036192Y024650D03*
X036754Y025213D03*
X037504Y023963D03*
X037129Y022025D03*
X036692Y021838D03*
X036254Y021588D03*
X035629Y021338D03*
X035379Y022025D03*
X034692Y022088D03*
X033567Y021400D03*
X034192Y020900D03*
X034067Y020400D03*
X034504Y020213D03*
X035192Y020213D03*
X036067Y019463D03*
X037504Y018775D03*
X037754Y019525D03*
X038254Y019588D03*
X038442Y018588D03*
X037192Y017775D03*
X037004Y017213D03*
X037817Y017400D03*
X038192Y016775D03*
X039567Y017150D03*
X040504Y016275D03*
X041192Y016650D03*
X042567Y017150D03*
X043629Y019400D03*
X044442Y020900D03*
X045442Y020900D03*
X046442Y020650D03*
X047317Y020775D03*
X047317Y020275D03*
X047567Y019400D03*
X047379Y018963D03*
X046129Y019525D03*
X043442Y021025D03*
X043754Y021650D03*
X043192Y022275D03*
X042442Y022463D03*
X040754Y022025D03*
X039754Y021713D03*
X039067Y021025D03*
X040067Y020650D03*
X040567Y020275D03*
X041067Y020150D03*
X041567Y019900D03*
X038817Y022025D03*
X038192Y022025D03*
X037754Y021525D03*
X037192Y020838D03*
X036504Y020775D03*
X038254Y020775D03*
X033379Y019338D03*
X032879Y019338D03*
X032379Y019338D03*
X031567Y020213D03*
X030942Y020400D03*
X030754Y019338D03*
X029067Y020088D03*
X028442Y019588D03*
X029004Y018463D03*
X031067Y017463D03*
X031629Y017025D03*
X032817Y017088D03*
X033379Y014963D03*
X033754Y014588D03*
X032567Y014275D03*
X033067Y013275D03*
X031192Y013588D03*
X031192Y015275D03*
X027067Y013838D03*
X026692Y014900D03*
X025754Y012900D03*
X023254Y013900D03*
X022879Y014463D03*
X022192Y013963D03*
X021879Y013525D03*
X020942Y012963D03*
X019129Y013963D03*
X018317Y013650D03*
X018817Y013213D03*
X018317Y012838D03*
X017629Y012588D03*
X016879Y012588D03*
X015004Y012588D03*
X015004Y013838D03*
X016879Y013838D03*
X019004Y012213D03*
X018692Y011838D03*
X019067Y011463D03*
X018754Y011025D03*
X018504Y010275D03*
X017942Y010838D03*
X016879Y010775D03*
X014942Y010775D03*
X015254Y009463D03*
X014317Y009338D03*
X013817Y009213D03*
X013379Y008900D03*
X012567Y009650D03*
X012192Y009275D03*
X010442Y008588D03*
X010004Y008400D03*
X009504Y008900D03*
X009254Y008213D03*
X008754Y008025D03*
X006942Y008525D03*
X006879Y007463D03*
X006317Y007525D03*
X005192Y008025D03*
X004692Y007838D03*
X004004Y007775D03*
X004129Y008275D03*
X001442Y010088D03*
X000942Y008775D03*
X003692Y010775D03*
X004567Y011400D03*
X004504Y012088D03*
X005379Y012213D03*
X006692Y011900D03*
X007129Y012213D03*
X006629Y012775D03*
X007192Y012963D03*
X006442Y013275D03*
X006754Y013900D03*
X007317Y013775D03*
X008754Y015463D03*
X008942Y016775D03*
X009067Y017650D03*
X008317Y017650D03*
X007067Y017463D03*
X006379Y016900D03*
X006004Y017400D03*
X005379Y017650D03*
X005192Y018150D03*
X004692Y018150D03*
X005254Y018963D03*
X005192Y019650D03*
X004504Y019525D03*
X004067Y020150D03*
X004504Y020588D03*
X004942Y021525D03*
X005129Y021963D03*
X005129Y022588D03*
X005317Y023025D03*
X004629Y023713D03*
X005254Y024275D03*
X005692Y024713D03*
X006067Y023900D03*
X006879Y024400D03*
X007192Y024025D03*
X007192Y023525D03*
X007192Y022900D03*
X009067Y023150D03*
X009629Y023150D03*
X010004Y023900D03*
X010442Y022650D03*
X010879Y022213D03*
X011567Y021400D03*
X010067Y020900D03*
X009567Y020775D03*
X009129Y020525D03*
X008754Y020213D03*
X008942Y019400D03*
X009754Y019463D03*
X010317Y019713D03*
X011004Y019025D03*
X011692Y018900D03*
X012067Y018588D03*
X012129Y018088D03*
X011567Y017963D03*
X011629Y017275D03*
X012442Y015838D03*
X013942Y015963D03*
X015754Y015963D03*
X019129Y015525D03*
X020442Y015400D03*
X021442Y015588D03*
X021754Y015963D03*
X022192Y015775D03*
X022504Y016213D03*
X022817Y016588D03*
X023004Y017775D03*
X022067Y019150D03*
X021442Y018963D03*
X021254Y018088D03*
X021254Y017463D03*
X020879Y017150D03*
X022879Y015338D03*
X020442Y011275D03*
X021192Y010650D03*
X020817Y010275D03*
X021379Y009775D03*
X020817Y009213D03*
X020629Y008775D03*
X021192Y008900D03*
X021879Y008713D03*
X021942Y009213D03*
X022629Y007838D03*
X022692Y006963D03*
X022192Y006900D03*
X023067Y006525D03*
X021754Y006025D03*
X021067Y005463D03*
X020442Y005275D03*
X019379Y005713D03*
X017879Y006463D03*
X017567Y007525D03*
X019285Y007556D03*
X020254Y007838D03*
X018692Y008775D03*
X018567Y009400D03*
X019067Y009525D03*
X015879Y008838D03*
X015504Y007525D03*
X014629Y007088D03*
X014129Y006963D03*
X013754Y007275D03*
X012754Y007463D03*
X011692Y008025D03*
X008692Y005838D03*
X006692Y004338D03*
X005879Y005900D03*
X006317Y006400D03*
X003442Y006400D03*
X009692Y002338D03*
X016067Y006713D03*
X016442Y006400D03*
X016817Y006088D03*
X019192Y004025D03*
X024442Y005338D03*
X024442Y006900D03*
X025442Y007838D03*
X026504Y008088D03*
X026129Y006963D03*
X025567Y008900D03*
X025504Y010088D03*
X025817Y010463D03*
X028004Y010650D03*
X029067Y009963D03*
X029567Y009588D03*
X030192Y009525D03*
X030692Y008150D03*
X029067Y008525D03*
X032754Y007900D03*
X033567Y008650D03*
X036442Y006463D03*
X037067Y006650D03*
X040317Y007150D03*
X042317Y004275D03*
X048317Y007400D03*
X048004Y009463D03*
X045692Y010025D03*
X045129Y010213D03*
X044317Y009713D03*
X043567Y010213D03*
X043067Y010400D03*
X042504Y010213D03*
X041942Y010588D03*
X041067Y010775D03*
X040067Y010963D03*
X039567Y011275D03*
X039067Y011525D03*
X036442Y011963D03*
X036817Y015775D03*
X044567Y014025D03*
X046692Y014525D03*
X048129Y014525D03*
X051692Y014025D03*
X052692Y015025D03*
X053754Y014900D03*
X053692Y016025D03*
X054317Y017025D03*
X056442Y018025D03*
X056442Y018525D03*
X056817Y017525D03*
X057067Y017025D03*
X057317Y016525D03*
X057317Y015775D03*
X058629Y015775D03*
X058629Y014400D03*
X058567Y012900D03*
X058629Y011025D03*
X057754Y009400D03*
X057254Y009650D03*
X057504Y008900D03*
X056692Y007650D03*
X057129Y007338D03*
X057254Y006775D03*
X057567Y006275D03*
X055817Y007338D03*
X054192Y009650D03*
X053254Y009463D03*
X054567Y010463D03*
X055067Y010400D03*
X052754Y010900D03*
X051754Y010900D03*
X053817Y013150D03*
X047442Y011775D03*
X048942Y005150D03*
X032754Y004713D03*
X027692Y004275D03*
X012442Y010588D03*
X010504Y011963D03*
X012067Y012588D03*
X012192Y014775D03*
X006567Y011275D03*
X007067Y010525D03*
X004254Y013025D03*
X002004Y012963D03*
X002004Y014400D03*
X002004Y015025D03*
X001129Y014588D03*
X001067Y015838D03*
X002504Y015900D03*
X003317Y016775D03*
X003754Y016588D03*
X004254Y017088D03*
X004567Y016275D03*
X005379Y015963D03*
X004192Y015275D03*
X002754Y017838D03*
X001004Y017775D03*
X005754Y020588D03*
X006129Y020025D03*
X005567Y021400D03*
X003754Y022400D03*
X004379Y024338D03*
X003629Y025650D03*
X004067Y026525D03*
X003129Y026525D03*
X002442Y026713D03*
X004567Y028775D03*
X005129Y029213D03*
X005692Y029213D03*
X006192Y029213D03*
X006692Y030025D03*
X008442Y031338D03*
X007129Y032213D03*
X006192Y032525D03*
X005629Y032900D03*
X006004Y033213D03*
X007567Y033213D03*
X007942Y032525D03*
X007254Y034213D03*
X003254Y032963D03*
X003254Y031525D03*
X003379Y030275D03*
X003379Y029275D03*
X005692Y027900D03*
X007067Y027088D03*
X008442Y027400D03*
X009004Y027900D03*
X009754Y026838D03*
X010754Y026588D03*
X010879Y025713D03*
X009629Y024900D03*
X008317Y026400D03*
X006504Y025150D03*
X005942Y025838D03*
X005442Y026213D03*
X010442Y030213D03*
X011192Y030525D03*
X010754Y030838D03*
X010067Y031088D03*
X012192Y031588D03*
X012504Y030838D03*
X013129Y031400D03*
X013839Y031338D03*
X015129Y031775D03*
X014067Y030088D03*
X013129Y030025D03*
X012629Y029463D03*
X014129Y029088D03*
X015254Y029775D03*
X016067Y029900D03*
X016567Y029150D03*
X018129Y028463D03*
X016692Y027963D03*
X013629Y027900D03*
X012317Y028463D03*
X011692Y028463D03*
X011692Y027588D03*
X014192Y025400D03*
X013879Y025025D03*
X013442Y024713D03*
X013629Y023713D03*
X013754Y023213D03*
X015129Y023963D03*
X015317Y024463D03*
X016379Y023963D03*
X017192Y023213D03*
X016629Y022213D03*
X017629Y020650D03*
X018567Y019838D03*
X017129Y019213D03*
X016629Y018963D03*
X015629Y018963D03*
X021754Y019900D03*
X024067Y021088D03*
X024879Y022213D03*
X024067Y023025D03*
X022754Y022838D03*
X021442Y022713D03*
X025004Y024400D03*
X025692Y024400D03*
X026067Y024775D03*
X025660Y025338D03*
X026879Y025213D03*
X028817Y025275D03*
X029817Y025275D03*
X030067Y024338D03*
X028817Y024025D03*
X027192Y023088D03*
X026567Y023088D03*
X025942Y023088D03*
X025504Y023650D03*
X023004Y026025D03*
X021942Y026400D03*
X024567Y027275D03*
X025410Y026869D03*
X030567Y023338D03*
X031254Y023088D03*
X032629Y022338D03*
X031629Y022088D03*
X030692Y021400D03*
X030067Y021088D03*
X028817Y021088D03*
X028254Y021463D03*
X033754Y026838D03*
X033692Y027463D03*
X031692Y028900D03*
X031504Y029713D03*
X025317Y034025D03*
X019754Y033775D03*
X015817Y033713D03*
X013129Y034213D03*
X012942Y033338D03*
X011379Y032525D03*
X012379Y032275D03*
X019817Y029900D03*
X017192Y025150D03*
X009567Y022088D03*
X009317Y021400D03*
X008879Y021650D03*
X001629Y011525D03*
X036692Y035525D03*
X045317Y031088D03*
X047254Y030900D03*
X042129Y026775D03*
X040754Y026775D03*
X041942Y024025D03*
X048442Y023775D03*
X053817Y021275D03*
X054317Y021650D03*
X054942Y021650D03*
X054942Y020650D03*
X054817Y019775D03*
X053192Y019025D03*
X052192Y019025D03*
X057754Y019463D03*
X058629Y018900D03*
X058629Y017400D03*
X056067Y023650D03*
X056567Y024150D03*
X055317Y024150D03*
X054692Y023650D03*
X058567Y028400D03*
X058067Y029525D03*
M02*
