<?xml version="1.0" standalone="no"?>
<!DOCTYPE svg PUBLIC "-//W3C//DTD SVG 20010904//EN"
 "http://www.w3.org/TR/2001/REC-SVG-20010904/DTD/svg10.dtd">
<svg version="1.0" xmlns="http://www.w3.org/2000/svg"
 width="458.000000pt" height="439.000000pt" viewBox="0 0 458.000000 439.000000"
 preserveAspectRatio="xMidYMid meet">
<metadata>
Created by potrace 1.16, written by Peter Selinger 2001-2019
</metadata>
<g transform="translate(0.000000,439.000000) scale(0.100000,-0.100000)"
fill="#000000" stroke="none">
<path d="M2417 3309 c-263 -31 -481 -60 -485 -63 -5 -5 -24 -2079 -19 -2082 1
-1 211 -25 467 -53 256 -28 480 -54 498 -58 l32 -5 0 201 c0 154 -3 201 -12
201 -24 0 -553 51 -575 56 l-23 4 0 700 c0 660 1 700 18 700 9 0 143 14 297
30 154 16 283 30 288 30 4 0 7 87 7 194 0 107 -3 197 -7 199 -5 2 -223 -22
-486 -54z"/>
</g>
</svg>
