<?xml version="1.0" standalone="no"?>
<!DOCTYPE svg PUBLIC "-//W3C//DTD SVG 20010904//EN"
 "http://www.w3.org/TR/2001/REC-SVG-20010904/DTD/svg10.dtd">
<svg version="1.0" xmlns="http://www.w3.org/2000/svg"
 width="356.000000pt" height="359.000000pt" viewBox="0 0 356.000000 359.000000"
 preserveAspectRatio="xMidYMid meet">
<metadata>
Created by potrace 1.16, written by Peter Selinger 2001-2019
</metadata>
<g transform="translate(0.000000,359.000000) scale(0.100000,-0.100000)"
fill="#000000" stroke="none">
<path d="M1204 3157 c-72 -72 -172 -175 -223 -228 l-92 -96 223 -196 223 -195
32 36 c18 21 32 39 33 42 0 3 -31 32 -70 65 -38 33 -70 63 -70 67 0 4 190 8
423 8 232 0 533 3 670 7 l247 6 0 49 0 50 -735 -8 -735 -7 -45 42 -46 42 67
70 67 69 262 0 c144 0 458 3 698 7 l437 6 0 50 0 50 -646 -6 c-607 -6 -645 -5
-633 11 7 9 35 41 63 70 l50 52 -34 35 -35 35 -131 -133z"/>
<path d="M420 2244 c-48 -21 -68 -41 -96 -97 -37 -71 -47 -180 -41 -426 5
-235 14 -284 62 -348 51 -66 82 -73 325 -73 188 0 220 3 256 19 78 36 101 86
111 249 l6 102 -75 0 -75 0 -5 -86 c-4 -70 -8 -89 -23 -100 -14 -11 -62 -14
-196 -14 -154 0 -180 2 -198 18 -33 26 -44 126 -39 342 4 192 14 239 53 254 9
3 92 6 184 6 208 0 204 2 211 -112 l5 -83 70 0 70 0 -1 95 c-1 110 -14 158
-57 207 -52 59 -72 63 -304 63 -163 -1 -216 -4 -243 -16z"/>
<path d="M1976 2246 c-53 -20 -102 -70 -121 -124 -20 -59 -20 -221 0 -288 8
-27 27 -62 42 -76 55 -53 92 -61 296 -66 228 -5 221 -2 215 -115 -5 -109 -1
-107 -212 -107 -94 0 -178 5 -186 10 -11 6 -16 33 -20 92 l-5 83 -72 3 -73 3
0 -88 c0 -142 30 -210 110 -250 41 -22 57 -23 242 -23 212 0 246 6 296 53 48
44 66 95 70 201 6 124 -9 195 -50 242 -56 64 -72 68 -290 74 -232 6 -231 6
-231 97 0 32 3 68 7 80 11 36 65 45 224 42 168 -5 173 -7 180 -99 l4 -60 74 0
74 0 0 38 c0 73 -21 167 -46 204 -13 21 -43 48 -67 60 -39 21 -56 23 -232 25
-144 2 -199 -1 -229 -11z"/>
<path d="M1080 1775 l0 -475 75 0 75 0 0 175 0 175 183 0 c142 0 188 -3 203
-14 17 -13 19 -30 22 -176 l4 -161 71 3 72 3 0 170 c-1 156 -3 173 -23 213
l-22 42 22 31 c22 29 23 40 23 192 0 154 -1 164 -25 206 -17 30 -40 52 -69 68
-43 22 -50 23 -328 23 l-283 0 0 -475z m538 289 c20 -14 22 -23 22 -108 0
-137 11 -130 -219 -134 l-191 -3 0 130 0 131 183 0 c149 0 187 -3 205 -16z"/>
<path d="M2612 1778 l3 -473 75 0 75 0 3 173 2 172 184 0 c158 0 185 -2 197
-16 10 -12 15 -62 19 -173 l5 -156 73 -3 72 -3 0 169 c0 157 -2 172 -24 215
-19 39 -21 49 -10 58 31 25 47 118 42 238 -7 160 -32 215 -113 252 -36 17 -70
19 -323 19 l-282 0 2 -472z m550 284 c9 -9 13 -44 13 -108 0 -136 4 -134 -226
-134 l-179 0 0 131 0 130 190 -3 c138 -2 193 -6 202 -16z"/>
<path d="M2208 1173 l-37 -36 76 -84 76 -84 -686 7 -687 7 0 -50 0 -50 377 -6
c207 -4 535 -7 729 -7 l352 0 76 -82 76 -83 -48 -48 -48 -48 -345 0 c-189 1
-536 4 -771 8 l-428 6 0 -50 0 -50 128 -6 c70 -4 343 -7 607 -8 264 -1 527 -4
585 -8 l104 -6 -82 -74 c-45 -41 -82 -79 -82 -85 0 -5 14 -25 31 -42 l32 -33
228 212 c125 117 227 217 226 224 -1 6 -50 65 -109 131 -60 66 -108 122 -108
125 0 2 -24 28 -53 58 -29 30 -82 87 -117 127 l-65 72 -37 -37z"/>
</g>
</svg>
