<?xml version="1.0" standalone="no"?>
<!DOCTYPE svg PUBLIC "-//W3C//DTD SVG 20010904//EN"
 "http://www.w3.org/TR/2001/REC-SVG-20010904/DTD/svg10.dtd">
<svg version="1.0" xmlns="http://www.w3.org/2000/svg"
 width="435.000000pt" height="444.000000pt" viewBox="0 0 435.000000 444.000000"
 preserveAspectRatio="xMidYMid meet">
<metadata>
Created by potrace 1.16, written by Peter Selinger 2001-2019
</metadata>
<g transform="translate(0.000000,444.000000) scale(0.100000,-0.100000)"
fill="#000000" stroke="none">
<path d="M2138 3869 c-236 -386 -688 -976 -1156 -1507 l-134 -152 234 -273
c441 -513 889 -1101 1083 -1421 8 -13 36 23 151 196 263 396 701 957 1071
1369 l122 137 -26 23 c-33 31 -251 280 -379 434 -337 404 -618 775 -825 1087
-56 84 -103 155 -104 157 -2 2 -19 -21 -37 -50z"/>
</g>
</svg>
