<?xml version="1.0" standalone="no"?>
<!DOCTYPE svg PUBLIC "-//W3C//DTD SVG 20010904//EN"
 "http://www.w3.org/TR/2001/REC-SVG-20010904/DTD/svg10.dtd">
<svg version="1.0" xmlns="http://www.w3.org/2000/svg"
 width="615.000000pt" height="169.000000pt" viewBox="0 0 615.000000 169.000000"
 preserveAspectRatio="xMidYMid meet">
<metadata>
Created by potrace 1.16, written by Peter Selinger 2001-2019
</metadata>
<g transform="translate(0.000000,169.000000) scale(0.100000,-0.100000)"
fill="#000000" stroke="none">
<path d="M900 851 l0 -351 70 0 70 0 0 120 0 120 168 -2 167 -3 3 -117 3 -118
69 0 70 0 0 125 c0 91 -4 134 -15 154 -13 26 -12 32 6 67 18 34 20 53 16 140
-4 118 -23 160 -85 190 -32 17 -68 19 -289 22 l-253 4 0 -351z m474 183 c10
-10 16 -33 16 -64 0 -78 -6 -80 -191 -80 l-159 0 0 80 0 80 159 0 c132 0 162
-3 175 -16z"/>
<path d="M1680 850 l0 -350 280 0 280 0 0 70 0 70 -210 0 -210 0 0 70 0 70
200 0 200 0 0 75 0 75 -200 0 -200 0 0 60 0 60 205 0 205 0 0 75 0 75 -275 0
-275 0 0 -350z"/>
<path d="M2320 1125 l0 -75 120 0 120 0 0 -275 0 -275 75 0 75 0 0 275 0 275
120 0 120 0 0 75 0 75 -315 0 -315 0 0 -75z"/>
<path d="M3062 908 c3 -312 4 -314 56 -370 38 -41 101 -50 302 -46 203 4 229
12 268 88 21 43 22 53 22 332 l0 288 -70 0 -70 0 0 -269 c0 -216 -3 -271 -14
-280 -9 -8 -65 -11 -177 -9 l-164 3 -5 275 -5 275 -73 3 -74 3 4 -293z"/>
<path d="M3870 851 l0 -351 70 0 70 0 0 120 0 120 168 -2 167 -3 3 -117 3
-118 69 0 70 0 0 125 c0 91 -4 134 -15 154 -13 26 -12 32 6 67 18 34 20 53 16
140 -4 118 -23 160 -85 190 -32 17 -68 19 -289 22 l-253 4 0 -351z m474 183
c10 -10 16 -33 16 -64 0 -78 -6 -80 -191 -80 l-159 0 0 80 0 80 159 0 c132 0
162 -3 175 -16z"/>
<path d="M4650 850 l0 -350 70 0 70 0 2 233 3 233 189 -233 190 -233 78 0 78
0 0 350 0 350 -70 0 -70 0 -2 -237 -3 -238 -193 238 -193 237 -75 0 -74 0 0
-350z"/>
</g>
</svg>
