<?xml version="1.0" standalone="no"?>
<!DOCTYPE svg PUBLIC "-//W3C//DTD SVG 20010904//EN"
 "http://www.w3.org/TR/2001/REC-SVG-20010904/DTD/svg10.dtd">
<svg version="1.0" xmlns="http://www.w3.org/2000/svg"
 width="473.000000pt" height="460.000000pt" viewBox="0 0 473.000000 460.000000"
 preserveAspectRatio="xMidYMid meet">
<metadata>
Created by potrace 1.16, written by Peter Selinger 2001-2019
</metadata>
<g transform="translate(0.000000,460.000000) scale(0.100000,-0.100000)"
fill="#000000" stroke="none">
<path d="M3201 3920 c-293 -41 -516 -214 -652 -504 -20 -45 -43 -100 -50 -123
-11 -40 -29 -58 -29 -30 0 6 -20 56 -44 109 -162 360 -430 548 -784 548 -143
0 -231 -19 -351 -77 -80 -38 -108 -59 -186 -137 -76 -75 -100 -106 -134 -176
-63 -130 -74 -189 -68 -355 6 -166 25 -241 97 -390 86 -176 147 -262 592 -822
548 -691 728 -972 839 -1317 24 -75 46 -135 49 -136 3 0 19 39 34 88 39 121
98 258 163 382 112 212 358 561 613 870 393 476 539 677 631 865 90 187 130
341 130 510 0 127 -13 190 -61 290 -115 239 -354 392 -636 408 -49 3 -118 2
-153 -3z"/>
</g>
</svg>
