<?xml version="1.0" standalone="no"?>
<!DOCTYPE svg PUBLIC "-//W3C//DTD SVG 20010904//EN"
 "http://www.w3.org/TR/2001/REC-SVG-20010904/DTD/svg10.dtd">
<svg version="1.0" xmlns="http://www.w3.org/2000/svg"
 width="633.000000pt" height="570.000000pt" viewBox="0 0 633.000000 570.000000"
 preserveAspectRatio="xMidYMid meet">
<metadata>
Created by potrace 1.16, written by Peter Selinger 2001-2019
</metadata>
<g transform="translate(0.000000,570.000000) scale(0.100000,-0.100000)"
fill="#000000" stroke="none">
<path d="M2005 5099 c-115 -10 -280 -22 -366 -28 -180 -13 -246 -27 -348 -77
-176 -86 -266 -233 -354 -579 -63 -244 -91 -421 -167 -1055 -108 -902 -163
-1423 -162 -1550 0 -277 91 -500 281 -691 153 -152 330 -242 566 -287 81 -15
180 -17 990 -16 495 1 1101 4 1346 9 l445 7 43 317 c24 174 45 326 48 339 l5
22 -1323 0 c-1267 1 -1410 3 -1510 30 -58 16 -114 71 -140 138 -41 107 -38
248 20 812 28 272 68 612 90 755 22 143 52 352 66 465 36 281 76 455 128 556
25 48 76 92 136 116 l56 23 986 3 c882 2 1026 1 1365 -18 467 -24 530 -38 578
-120 26 -44 33 -212 17 -390 -20 -222 -121 -1042 -140 -1135 -35 -171 -77
-234 -170 -254 -104 -22 -268 -35 -295 -23 -65 29 -62 122 34 916 44 365 80
671 80 680 0 14 -31 16 -329 16 l-328 0 -7 -31 c-3 -17 -6 -46 -6 -64 0 -17
-2 -34 -5 -37 -3 -3 -23 12 -45 33 -23 22 -97 67 -173 104 -127 63 -136 66
-237 75 -208 20 -570 -7 -764 -56 -225 -57 -342 -147 -437 -337 -96 -190 -128
-327 -185 -782 -23 -179 -28 -262 -28 -445 -1 -220 0 -227 25 -292 39 -100 87
-174 151 -232 111 -100 224 -152 404 -182 147 -25 542 -25 679 0 193 35 338
91 409 156 28 26 46 37 46 28 0 -30 65 -111 114 -144 65 -43 140 -68 257 -88
181 -29 274 -30 584 -1 318 29 463 53 534 89 186 95 290 285 371 680 19 94 96
691 139 1081 58 524 52 921 -18 1106 -59 157 -172 252 -356 301 -76 20 -144
24 -965 58 -661 27 -1815 27 -2135 -1z m1357 -1629 c51 -15 131 -103 149 -167
30 -102 8 -408 -42 -593 -39 -146 -122 -253 -219 -280 -19 -5 -152 -10 -296
-10 -294 0 -344 8 -400 64 -40 40 -54 86 -61 202 -10 156 30 451 76 575 25 66
88 142 140 168 32 17 90 31 181 45 58 8 438 5 472 -4z"/>
</g>
</svg>
