<?xml version="1.0" standalone="no"?>
<!DOCTYPE svg PUBLIC "-//W3C//DTD SVG 20010904//EN"
 "http://www.w3.org/TR/2001/REC-SVG-20010904/DTD/svg10.dtd">
<svg version="1.0" xmlns="http://www.w3.org/2000/svg"
 width="313.000000pt" height="286.000000pt" viewBox="0 0 313.000000 286.000000"
 preserveAspectRatio="xMidYMid meet">
<metadata>
Created by potrace 1.16, written by Peter Selinger 2001-2019
</metadata>
<g transform="translate(0.000000,286.000000) scale(0.100000,-0.100000)"
fill="#000000" stroke="none">
<path d="M900 2613 c-363 -28 -572 -181 -625 -459 -21 -106 -20 -466 0 -566
42 -201 175 -339 378 -392 126 -33 243 -38 852 -34 665 5 651 3 788 72 l68 35
-3 -207 c-3 -204 -3 -208 -30 -253 -32 -54 -82 -91 -158 -115 -49 -16 -110
-18 -575 -22 -529 -4 -653 2 -751 34 -56 18 -82 37 -110 79 -15 24 -19 52 -22
167 l-4 138 -216 0 -215 0 6 -153 c10 -248 51 -364 166 -469 106 -97 275 -158
495 -178 78 -8 322 -10 691 -8 l570 4 97 26 c141 39 228 87 318 177 88 89 131
168 155 287 14 70 16 158 13 695 -4 596 -4 616 -26 692 -75 268 -265 411 -594
447 -88 9 -1151 12 -1268 3z m1260 -405 c105 -28 158 -71 182 -151 18 -59 16
-300 -3 -351 -20 -55 -71 -92 -164 -118 -79 -22 -90 -22 -670 -23 -630 0 -691
4 -758 49 -48 32 -59 88 -54 276 4 212 26 259 136 301 84 32 220 38 776 34
393 -2 512 -6 555 -17z"/>
</g>
</svg>
