<?xml version="1.0" standalone="no"?>
<!DOCTYPE svg PUBLIC "-//W3C//DTD SVG 20010904//EN"
 "http://www.w3.org/TR/2001/REC-SVG-20010904/DTD/svg10.dtd">
<svg version="1.0" xmlns="http://www.w3.org/2000/svg"
 width="418.000000pt" height="340.000000pt" viewBox="0 0 418.000000 340.000000"
 preserveAspectRatio="xMidYMid meet">
<metadata>
Created by potrace 1.16, written by Peter Selinger 2001-2019
</metadata>
<g transform="translate(0.000000,340.000000) scale(0.100000,-0.100000)"
fill="#000000" stroke="none">
<path d="M700 2535 l0 -525 90 0 90 0 0 190 0 190 238 0 c130 0 242 -4 248 -8
28 -18 34 -56 34 -211 l0 -161 85 0 85 0 0 183 c0 156 -3 188 -19 223 -10 23
-24 45 -31 49 -8 5 -6 13 9 29 41 44 51 88 51 229 0 160 -15 221 -65 272 -61
60 -95 65 -477 65 l-338 0 0 -525z m686 313 c14 -13 18 -36 18 -105 1 -114 -6
-138 -45 -152 -20 -7 -119 -11 -255 -11 l-224 0 0 145 0 146 245 -3 c214 -3
246 -5 261 -20z"/>
<path d="M1672 2618 c3 -491 3 -485 71 -556 53 -55 97 -62 388 -62 281 0 317
6 372 58 16 15 39 45 50 67 21 39 22 51 25 488 l3 447 -91 0 -90 0 0 -415 c0
-402 -1 -416 -20 -435 -19 -19 -33 -20 -255 -20 -222 0 -236 1 -255 20 -19 19
-20 33 -20 435 l0 415 -90 0 -91 0 3 -442z"/>
<path d="M2680 2535 l0 -525 90 0 90 0 2 381 3 381 288 -381 289 -381 104 0
104 0 0 525 0 525 -90 0 -90 0 -2 -381 -3 -382 -289 382 -289 381 -103 0 -104
0 0 -525z"/>
<path d="M685 1573 c-102 -15 -158 -52 -198 -127 -17 -34 -22 -62 -25 -162 -5
-153 12 -222 67 -274 57 -54 100 -63 333 -69 248 -7 240 -3 240 -114 0 -89 -6
-113 -35 -129 -26 -14 -272 -23 -352 -13 -84 10 -95 26 -95 130 l0 85 -80 0
-80 0 0 -98 c0 -164 36 -238 137 -285 45 -20 63 -22 258 -22 226 0 261 6 324
53 19 14 45 49 60 81 23 51 26 67 26 186 0 146 -10 187 -59 243 -59 67 -94 76
-339 82 -261 6 -250 1 -245 122 4 92 15 107 85 119 109 18 341 5 366 -20 6 -6
12 -44 15 -85 l5 -76 80 0 80 0 -5 103 c-5 112 -22 159 -75 209 -52 49 -101
60 -288 63 -93 2 -183 1 -200 -2z"/>
<path d="M2277 1569 c-89 -22 -143 -77 -175 -178 -25 -83 -25 -629 0 -712 24
-77 67 -132 125 -160 47 -23 55 -24 303 -24 246 0 257 1 302 23 57 28 95 76
122 156 19 56 20 84 21 351 0 253 -2 299 -19 358 -23 86 -61 138 -123 168 -46
23 -58 24 -283 26 -129 1 -252 -2 -273 -8z m473 -192 c55 -27 60 -58 60 -340
0 -193 -3 -266 -13 -290 -26 -61 -29 -62 -267 -62 -238 0 -241 1 -267 62 -10
24 -13 97 -13 290 0 226 2 262 18 293 28 56 45 60 262 60 136 0 203 -4 220
-13z"/>
<path d="M1270 1475 l0 -95 160 0 160 0 0 -440 0 -441 83 3 82 3 3 438 2 437
160 0 160 0 0 95 0 95 -405 0 -405 0 0 -95z"/>
<path d="M3050 1035 l0 -536 83 3 82 3 3 192 2 192 233 3 c226 3 233 4 276 28
67 38 91 91 102 231 15 191 -15 334 -81 381 -43 31 -123 38 -416 38 l-284 0 0
-535z m596 323 c19 -19 31 -150 20 -212 -12 -65 -15 -66 -242 -66 l-204 0 0
151 0 150 205 -3 c176 -3 207 -5 221 -20z"/>
</g>
</svg>
