<?xml version="1.0" standalone="no"?>
<!DOCTYPE svg PUBLIC "-//W3C//DTD SVG 20010904//EN"
 "http://www.w3.org/TR/2001/REC-SVG-20010904/DTD/svg10.dtd">
<svg version="1.0" xmlns="http://www.w3.org/2000/svg"
 width="435.000000pt" height="444.000000pt" viewBox="0 0 435.000000 444.000000"
 preserveAspectRatio="xMidYMid meet">
<metadata>
Created by potrace 1.16, written by Peter Selinger 2001-2019
</metadata>
<g transform="translate(0.000000,444.000000) scale(0.100000,-0.100000)"
fill="#000000" stroke="none">
<path d="M150 2230 l0 -2000 1995 0 1995 0 0 2000 0 2000 -1995 0 -1995 0 0
-2000z m1494 1695 c-316 -93 -563 -243 -789 -477 -175 -180 -299 -374 -385
-599 l-39 -104 -1 603 0 602 648 -1 647 0 -81 -24z m2216 -622 l-1 -648 -39
118 c-126 380 -367 696 -699 919 -160 107 -281 165 -471 224 l-105 33 658 1
657 0 0 -647z m-1425 73 c200 -54 395 -167 545 -316 225 -224 343 -512 343
-835 0 -323 -118 -611 -343 -835 -180 -179 -399 -294 -645 -337 -123 -21 -378
-13 -485 15 -218 58 -385 150 -539 297 -244 232 -371 527 -371 860 0 567 394
1048 955 1166 139 29 403 21 540 -15z m1425 -2226 l0 -640 -637 0 -638 1 104
35 c534 177 961 603 1128 1126 21 65 39 118 41 118 1 0 2 -288 2 -640z m-3298
249 c78 -146 169 -270 293 -397 208 -216 432 -358 713 -452 l117 -40 -627 0
-628 0 0 598 1 597 39 -104 c22 -57 63 -148 92 -202z"/>
</g>
</svg>
