<?xml version="1.0" standalone="no"?>
<!DOCTYPE svg PUBLIC "-//W3C//DTD SVG 20010904//EN"
 "http://www.w3.org/TR/2001/REC-SVG-20010904/DTD/svg10.dtd">
<svg version="1.0" xmlns="http://www.w3.org/2000/svg"
 width="473.000000pt" height="460.000000pt" viewBox="0 0 473.000000 460.000000"
 preserveAspectRatio="xMidYMid meet">
<metadata>
Created by potrace 1.16, written by Peter Selinger 2001-2019
</metadata>
<g transform="translate(0.000000,460.000000) scale(0.100000,-0.100000)"
fill="#000000" stroke="none">
<path d="M420 2320 l0 -2000 2005 0 2005 0 0 2000 0 2000 -2005 0 -2005 0 0
-2000z m2527 1637 c-20 -261 -102 -550 -231 -821 -345 -725 -1050 -1231 -1856
-1332 -63 -8 -122 -14 -132 -14 -17 0 -18 51 -18 1125 l0 1125 1121 0 1122 0
-6 -83z m1193 -1637 l0 -1720 -1715 0 -1715 0 0 199 0 198 92 7 c435 32 894
166 1266 368 655 355 1185 950 1456 1633 113 286 193 631 211 915 4 52 8 101
10 108 3 9 52 12 200 12 l195 0 0 -1720z"/>
</g>
</svg>
