<?xml version="1.0" standalone="no"?>
<!DOCTYPE svg PUBLIC "-//W3C//DTD SVG 20010904//EN"
 "http://www.w3.org/TR/2001/REC-SVG-20010904/DTD/svg10.dtd">
<svg version="1.0" xmlns="http://www.w3.org/2000/svg"
 width="435.000000pt" height="444.000000pt" viewBox="0 0 435.000000 444.000000"
 preserveAspectRatio="xMidYMid meet">
<metadata>
Created by potrace 1.16, written by Peter Selinger 2001-2019
</metadata>
<g transform="translate(0.000000,444.000000) scale(0.100000,-0.100000)"
fill="#000000" stroke="none">
<path d="M2115 3713 c-95 -8 -196 -37 -295 -85 -93 -45 -115 -61 -201 -147
-79 -79 -103 -111 -137 -181 -58 -119 -76 -193 -76 -325 1 -156 25 -222 181
-488 3 -4 -12 -1 -34 8 -215 92 -323 118 -462 113 -173 -7 -292 -60 -430 -192
-138 -133 -210 -276 -232 -464 -39 -323 126 -620 426 -768 121 -59 187 -75
335 -81 100 -4 144 -1 220 15 295 61 562 267 727 560 l38 67 3 -97 c12 -418
-233 -866 -567 -1032 -103 -52 -326 -117 -529 -157 -66 -12 -74 -20 -87 -77
l-7 -32 1230 0 1230 0 -12 47 -12 47 -112 22 c-358 72 -541 153 -719 319 -164
151 -263 336 -313 586 -18 94 -46 356 -38 364 2 2 31 -38 65 -89 130 -196 235
-302 392 -396 178 -106 364 -156 546 -146 131 6 202 24 311 76 207 100 369
294 420 505 23 94 23 286 0 380 -28 115 -88 225 -175 317 -140 149 -291 224
-477 235 -121 8 -203 -8 -332 -64 -186 -79 -175 -75 -166 -61 4 7 20 32 36 55
16 24 47 80 68 125 103 216 106 420 9 618 -35 69 -60 103 -138 181 -144 145
-284 213 -486 238 -88 11 -118 11 -200 4z"/>
</g>
</svg>
