<?xml version="1.0" standalone="no"?>
<!DOCTYPE svg PUBLIC "-//W3C//DTD SVG 20010904//EN"
 "http://www.w3.org/TR/2001/REC-SVG-20010904/DTD/svg10.dtd">
<svg version="1.0" xmlns="http://www.w3.org/2000/svg"
 width="703.000000pt" height="419.000000pt" viewBox="0 0 703.000000 419.000000"
 preserveAspectRatio="xMidYMid meet">
<metadata>
Created by potrace 1.16, written by Peter Selinger 2001-2019
</metadata>
<g transform="translate(0.000000,419.000000) scale(0.100000,-0.100000)"
fill="#000000" stroke="none">
<path d="M882 3735 c-91 -20 -179 -71 -224 -131 -53 -68 -77 -148 -89 -294
-15 -160 -5 -521 16 -608 38 -157 124 -244 286 -289 57 -16 116 -18 534 -18
510 0 541 3 645 55 66 34 119 88 153 155 47 97 52 138 52 470 0 331 -5 378
-55 476 -29 55 -95 120 -151 147 -98 47 -151 52 -644 51 -351 0 -475 -4 -523
-14z m998 -224 c49 -19 87 -57 105 -106 14 -34 16 -88 13 -350 -3 -305 -3
-311 -27 -348 -12 -21 -42 -48 -65 -60 -40 -22 -49 -22 -461 -25 -453 -4 -502
0 -555 45 -63 53 -65 60 -68 373 -5 363 5 412 91 457 53 27 127 31 537 29 299
-2 403 -5 430 -15z"/>
<path d="M3000 3075 l0 -665 130 0 130 0 0 285 0 285 490 0 490 0 0 110 0 110
-487 2 -488 3 -3 153 -3 152 511 0 510 0 0 115 0 115 -640 0 -640 0 0 -665z"/>
<path d="M4980 3075 l0 -665 130 0 130 0 0 285 0 285 490 0 490 0 0 110 0 110
-490 0 -490 0 0 155 0 155 510 0 510 0 0 115 0 115 -640 0 -640 0 0 -665z"/>
<path d="M5270 1863 c-72 -9 -162 -34 -208 -57 -138 -70 -205 -225 -188 -433
19 -226 96 -319 306 -368 62 -15 148 -19 500 -25 461 -8 485 -11 524 -63 18
-24 21 -42 21 -120 -1 -119 -19 -161 -84 -191 -44 -20 -62 -21 -456 -23 -367
-2 -415 -1 -459 15 -76 27 -90 53 -94 178 l-4 104 -129 0 -129 0 0 -72 c1
-273 85 -398 302 -454 80 -21 703 -32 880 -16 187 18 293 64 363 160 54 74 68
143 63 318 -3 130 -7 156 -27 201 -28 63 -103 136 -168 164 -107 46 -156 51
-613 58 -401 6 -438 8 -474 25 -54 27 -69 68 -64 174 5 94 21 126 80 155 99
49 786 50 909 1 50 -20 69 -58 69 -136 0 -102 -5 -98 137 -98 l126 0 -6 113
c-6 133 -23 188 -79 252 -52 59 -106 90 -204 117 -74 20 -103 22 -469 24 -214
1 -406 0 -425 -3z"/>
<path d="M460 1106 l0 -756 135 0 135 0 0 281 0 280 473 -3 c529 -3 517 -2
553 -75 16 -33 19 -68 22 -261 l4 -222 124 0 124 0 0 238 c0 281 -7 320 -73
385 l-42 42 51 50 c67 67 84 126 84 294 0 314 -61 422 -272 478 -55 14 -144
17 -690 20 l-628 4 0 -755z m1248 480 c63 -27 72 -53 72 -196 0 -183 -19 -210
-157 -230 -37 -5 -254 -10 -480 -10 l-413 0 0 230 0 231 468 -3 c431 -3 470
-4 510 -22z"/>
<path d="M2550 1853 c0 -5 173 -343 385 -753 l384 -745 141 0 141 0 384 745
c212 410 385 748 385 752 0 14 -286 9 -297 -4 -6 -7 -144 -275 -309 -595 -164
-321 -301 -583 -304 -583 -3 0 -140 262 -304 583 -165 320 -303 588 -309 595
-10 13 -297 18 -297 5z"/>
</g>
</svg>
