<?xml version="1.0" standalone="no"?>
<!DOCTYPE svg PUBLIC "-//W3C//DTD SVG 20010904//EN"
 "http://www.w3.org/TR/2001/REC-SVG-20010904/DTD/svg10.dtd">
<svg version="1.0" xmlns="http://www.w3.org/2000/svg"
 width="220.000000pt" height="219.000000pt" viewBox="0 0 220.000000 219.000000"
 preserveAspectRatio="xMidYMid meet">
<metadata>
Created by potrace 1.16, written by Peter Selinger 2001-2019
</metadata>
<g transform="translate(0.000000,219.000000) scale(0.100000,-0.100000)"
fill="#000000" stroke="none">
<path d="M712 1659 c-106 -18 -193 -83 -233 -173 -34 -77 -41 -164 -37 -428 4
-226 6 -259 25 -310 27 -73 55 -112 106 -149 84 -61 113 -64 532 -64 442 0
449 1 566 86 13 10 24 7 55 -15 21 -14 42 -26 45 -26 5 0 61 89 96 152 2 4
-18 22 -44 39 l-48 32 0 281 c0 231 -3 291 -17 339 -33 117 -86 178 -190 220
-51 21 -70 22 -428 23 -206 2 -399 -2 -428 -7z m778 -204 c68 -41 75 -65 78
-297 2 -115 1 -208 -2 -208 -4 0 -80 50 -171 110 -91 61 -168 110 -172 110 -5
0 -29 -36 -55 -80 l-47 -79 190 -128 c104 -70 189 -130 189 -134 0 -16 -62
-19 -390 -19 -380 0 -389 1 -434 63 -20 27 -21 44 -24 285 -2 163 0 270 7 293
15 49 54 86 104 98 23 5 187 9 367 8 307 -2 327 -3 360 -22z"/>
</g>
</svg>
