<?xml version="1.0" standalone="no"?>
<!DOCTYPE svg PUBLIC "-//W3C//DTD SVG 20010904//EN"
 "http://www.w3.org/TR/2001/REC-SVG-20010904/DTD/svg10.dtd">
<svg version="1.0" xmlns="http://www.w3.org/2000/svg"
 width="615.000000pt" height="169.000000pt" viewBox="0 0 615.000000 169.000000"
 preserveAspectRatio="xMidYMid meet">
<metadata>
Created by potrace 1.16, written by Peter Selinger 2001-2019
</metadata>
<g transform="translate(0.000000,169.000000) scale(0.100000,-0.100000)"
fill="#000000" stroke="none">
<path d="M1670 830 l0 -530 100 0 100 0 0 230 0 230 415 0 415 0 0 -230 0
-230 100 0 100 0 0 530 0 531 -97 -3 -98 -3 -3 -212 -2 -213 -415 0 -415 0 0
215 0 215 -100 0 -100 0 0 -530z"/>
<path d="M603 1340 c-108 -23 -183 -76 -219 -158 -21 -47 -24 -209 -5 -272 20
-68 81 -123 166 -150 65 -21 95 -23 417 -29 331 -6 348 -7 375 -27 33 -25 48
-77 39 -139 -10 -62 -36 -91 -97 -104 -65 -14 -601 -15 -651 -1 -58 17 -78 50
-78 131 l0 69 -96 0 -97 0 5 -88 c6 -106 29 -163 85 -213 78 -71 101 -74 518
-74 367 0 371 0 429 24 78 31 138 91 156 156 8 28 14 91 14 145 -1 136 -29
192 -119 245 -71 42 -116 47 -475 54 -256 5 -352 10 -372 20 -36 18 -51 60
-46 126 6 70 32 100 100 114 62 14 527 14 599 1 74 -14 99 -43 99 -116 l0 -54
95 0 95 0 0 58 c0 136 -55 220 -171 263 -62 22 -76 23 -394 25 -181 1 -349 -1
-372 -6z"/>
<path d="M3110 815 l0 -525 95 0 95 0 0 525 0 525 -95 0 -95 0 0 -525z"/>
<path d="M3470 815 l0 -525 95 0 95 0 2 228 3 227 388 3 387 2 0 85 0 85 -390
0 -390 0 0 125 0 125 405 0 405 0 0 85 0 85 -500 0 -500 0 0 -525z"/>
<path d="M4620 1255 l0 -85 250 0 250 0 0 -440 0 -440 100 0 100 0 0 440 0
440 250 0 250 0 0 85 0 85 -600 0 -600 0 0 -85z"/>
</g>
</svg>
