<?xml version="1.0" standalone="no"?>
<!DOCTYPE svg PUBLIC "-//W3C//DTD SVG 20010904//EN"
 "http://www.w3.org/TR/2001/REC-SVG-20010904/DTD/svg10.dtd">
<svg version="1.0" xmlns="http://www.w3.org/2000/svg"
 width="313.000000pt" height="286.000000pt" viewBox="0 0 313.000000 286.000000"
 preserveAspectRatio="xMidYMid meet">
<metadata>
Created by potrace 1.16, written by Peter Selinger 2001-2019
</metadata>
<g transform="translate(0.000000,286.000000) scale(0.100000,-0.100000)"
fill="#000000" stroke="none">
<path d="M795 2559 c-290 -26 -465 -157 -531 -396 -10 -38 -18 -119 -21 -235
l-6 -178 216 0 215 0 4 148 c3 169 10 187 80 223 86 44 155 48 783 48 587 1
698 -4 755 -34 46 -24 60 -55 71 -158 15 -131 0 -279 -31 -311 -43 -47 -71
-49 -637 -53 l-533 -4 0 -194 0 -194 568 -3 c647 -3 615 1 649 -85 26 -69 27
-382 0 -430 -42 -79 -80 -83 -838 -83 -655 0 -717 3 -791 41 -66 34 -81 78
-86 257 l-4 152 -215 0 -215 0 5 -197 c3 -135 10 -215 20 -252 66 -227 219
-338 532 -383 128 -19 1374 -19 1495 0 193 30 316 79 405 163 113 107 138 197
139 499 1 177 -2 226 -17 280 -26 94 -55 145 -113 200 l-52 49 48 49 c66 69
89 142 99 316 13 223 -7 385 -61 490 -27 53 -110 140 -165 171 -100 59 -235
91 -437 105 -168 12 -1202 11 -1331 -1z"/>
</g>
</svg>
