<?xml version="1.0" standalone="no"?>
<!DOCTYPE svg PUBLIC "-//W3C//DTD SVG 20010904//EN"
 "http://www.w3.org/TR/2001/REC-SVG-20010904/DTD/svg10.dtd">
<svg version="1.0" xmlns="http://www.w3.org/2000/svg"
 width="313.000000pt" height="286.000000pt" viewBox="0 0 313.000000 286.000000"
 preserveAspectRatio="xMidYMid meet">
<metadata>
Created by potrace 1.16, written by Peter Selinger 2001-2019
</metadata>
<g transform="translate(0.000000,286.000000) scale(0.100000,-0.100000)"
fill="#000000" stroke="none">
<path d="M1005 2475 c-88 -52 -164 -95 -169 -97 -4 -2 93 -177 218 -388 l225
-385 -450 -3 -449 -2 2 -198 3 -197 444 -3 c375 -2 442 -4 438 -16 -3 -8 -101
-178 -218 -378 -116 -199 -213 -366 -215 -370 -2 -3 74 -51 169 -106 l174 -99
214 369 c117 204 218 376 224 384 8 11 60 -72 229 -366 120 -209 223 -380 227
-380 13 0 327 179 334 190 3 5 -93 179 -213 387 l-218 378 443 3 443 2 0 200
0 200 -444 2 -444 3 219 380 c121 209 219 382 219 386 0 8 -340 202 -345 197
-1 -2 -100 -173 -220 -380 -119 -208 -220 -378 -224 -378 -3 0 -104 171 -224
380 -120 209 -222 380 -225 379 -4 0 -79 -43 -167 -94z"/>
</g>
</svg>
