<?xml version="1.0" standalone="no"?>
<!DOCTYPE svg PUBLIC "-//W3C//DTD SVG 20010904//EN"
 "http://www.w3.org/TR/2001/REC-SVG-20010904/DTD/svg10.dtd">
<svg version="1.0" xmlns="http://www.w3.org/2000/svg"
 width="458.000000pt" height="439.000000pt" viewBox="0 0 458.000000 439.000000"
 preserveAspectRatio="xMidYMid meet">
<metadata>
Created by potrace 1.16, written by Peter Selinger 2001-2019
</metadata>
<g transform="translate(0.000000,439.000000) scale(0.100000,-0.100000)"
fill="#000000" stroke="none">
<path d="M260 2150 l0 -2000 1995 0 1995 0 0 2000 0 2000 -1995 0 -1995 0 0
-2000z m3710 1025 l0 -695 -1718 2 -1717 3 -3 680 c-1 374 0 686 3 693 3 9
357 12 1720 12 l1715 0 0 -695z m-2040 -2045 l0 -700 -697 2 -698 3 -3 698 -2
697 700 0 700 0 0 -700z m2040 0 l0 -700 -695 0 -695 0 0 700 0 700 695 0 695
0 0 -700z"/>
</g>
</svg>
