<?xml version="1.0" standalone="no"?>
<!DOCTYPE svg PUBLIC "-//W3C//DTD SVG 20010904//EN"
 "http://www.w3.org/TR/2001/REC-SVG-20010904/DTD/svg10.dtd">
<svg version="1.0" xmlns="http://www.w3.org/2000/svg"
 width="458.000000pt" height="439.000000pt" viewBox="0 0 458.000000 439.000000"
 preserveAspectRatio="xMidYMid meet">
<metadata>
Created by potrace 1.16, written by Peter Selinger 2001-2019
</metadata>
<g transform="translate(0.000000,439.000000) scale(0.100000,-0.100000)"
fill="#000000" stroke="none">
<path d="M2378 3283 c-71 -2 -128 -6 -128 -9 0 -7 -219 -1325 -226 -1356 l-6
-28 194 0 193 0 164 688 c91 378 166 693 169 700 4 12 -25 13 -360 5z"/>
<path d="M1926 1553 c-3 -16 -15 -102 -26 -193 -11 -91 -23 -175 -26 -187 l-4
-23 174 0 174 0 51 205 c28 112 51 209 51 215 0 6 -69 10 -194 10 l-194 0 -6
-27z"/>
</g>
</svg>
