<?xml version="1.0" standalone="no"?>
<!DOCTYPE svg PUBLIC "-//W3C//DTD SVG 20010904//EN"
 "http://www.w3.org/TR/2001/REC-SVG-20010904/DTD/svg10.dtd">
<svg version="1.0" xmlns="http://www.w3.org/2000/svg"
 width="457.000000pt" height="372.000000pt" viewBox="0 0 457.000000 372.000000"
 preserveAspectRatio="xMidYMid meet">
<metadata>
Created by potrace 1.16, written by Peter Selinger 2001-2019
</metadata>
<g transform="translate(0.000000,372.000000) scale(0.100000,-0.100000)"
fill="#000000" stroke="none">
<path d="M1483 3440 c-322 -26 -543 -116 -700 -284 -117 -125 -183 -268 -224
-487 -21 -108 -22 -151 -26 -784 -5 -705 0 -845 37 -1027 83 -407 326 -626
781 -704 81 -14 218 -17 959 -21 587 -3 908 -1 1000 7 450 37 716 190 854 492
38 83 57 145 83 273 16 82 18 157 18 890 0 798 0 800 -23 904 -29 133 -62 226
-107 307 -130 231 -345 363 -687 420 -91 16 -202 18 -983 20 -484 1 -926 -2
-982 -6z m1687 -561 c334 -23 422 -81 466 -303 24 -126 37 -506 31 -956 -4
-234 -11 -468 -17 -520 -34 -302 -117 -373 -470 -400 -173 -13 -1372 -13
-1550 0 -341 25 -422 84 -467 340 -20 115 -30 1131 -14 1351 31 399 105 468
531 492 150 9 1363 6 1490 -4z"/>
</g>
</svg>
