<?xml version="1.0" standalone="no"?>
<!DOCTYPE svg PUBLIC "-//W3C//DTD SVG 20010904//EN"
 "http://www.w3.org/TR/2001/REC-SVG-20010904/DTD/svg10.dtd">
<svg version="1.0" xmlns="http://www.w3.org/2000/svg"
 width="313.000000pt" height="286.000000pt" viewBox="0 0 313.000000 286.000000"
 preserveAspectRatio="xMidYMid meet">
<metadata>
Created by potrace 1.16, written by Peter Selinger 2001-2019
</metadata>
<g transform="translate(0.000000,286.000000) scale(0.100000,-0.100000)"
fill="#000000" stroke="none">
<path d="M852 2609 c-311 -30 -487 -150 -546 -374 -22 -81 -31 -298 -17 -415
13 -121 58 -218 130 -282 l49 -44 -34 -19 c-48 -26 -111 -97 -134 -151 -31
-72 -40 -155 -40 -374 0 -290 25 -386 126 -499 59 -66 175 -124 304 -153 90
-20 127 -21 760 -25 844 -6 953 3 1122 88 122 61 192 152 228 295 29 112 29
482 1 573 -27 86 -62 141 -131 204 l-61 54 35 31 c59 52 104 120 127 190 29
94 38 340 16 467 -48 271 -218 401 -572 435 -119 11 -1244 11 -1363 -1z m1337
-399 c151 -25 175 -61 175 -255 1 -147 -10 -192 -55 -229 -57 -48 -96 -51
-769 -51 -674 0 -712 3 -770 51 -42 36 -54 89 -54 234 0 184 28 226 166 249
77 13 1229 13 1307 1z m-42 -940 c219 -18 244 -48 244 -291 0 -217 -21 -253
-158 -286 -71 -16 -134 -18 -698 -18 -874 0 -840 -12 -840 310 0 146 3 175 18
203 26 47 88 72 201 82 134 11 1102 11 1233 0z"/>
</g>
</svg>
