<?xml version="1.0" standalone="no"?>
<!DOCTYPE svg PUBLIC "-//W3C//DTD SVG 20010904//EN"
 "http://www.w3.org/TR/2001/REC-SVG-20010904/DTD/svg10.dtd">
<svg version="1.0" xmlns="http://www.w3.org/2000/svg"
 width="537.000000pt" height="417.000000pt" viewBox="0 0 537.000000 417.000000"
 preserveAspectRatio="xMidYMid meet">
<metadata>
Created by potrace 1.16, written by Peter Selinger 2001-2019
</metadata>
<g transform="translate(0.000000,417.000000) scale(0.100000,-0.100000)"
fill="#000000" stroke="none">
<path d="M2840 3899 c-147 -25 -237 -107 -276 -254 -17 -62 -18 -284 -3 -357
27 -124 95 -203 209 -240 57 -18 99 -21 360 -27 306 -8 329 -11 351 -52 15
-28 15 -186 0 -232 -23 -68 -39 -72 -346 -72 -304 0 -321 3 -342 65 -7 19 -12
79 -12 133 l-1 97 -116 0 -116 0 4 -152 c3 -142 6 -157 32 -215 36 -79 103
-144 177 -169 49 -17 86 -19 384 -19 l330 0 55 26 c76 36 112 68 148 136 42
79 55 166 50 331 -4 107 -9 148 -25 189 -29 72 -72 124 -132 156 -86 47 -159
57 -446 57 -344 0 -342 -1 -343 160 -1 80 15 127 51 154 27 20 40 21 285 21
267 0 322 -7 338 -43 4 -9 10 -60 13 -112 l6 -95 115 0 115 0 3 65 c4 83 -14
213 -38 266 -42 97 -138 162 -270 183 -78 13 -482 12 -560 0z"/>
<path d="M440 3150 l0 -740 120 0 120 0 0 740 0 740 -120 0 -120 0 0 -740z"/>
<path d="M990 3150 l0 -740 120 0 120 0 2 534 3 534 379 -534 378 -534 139 0
139 0 0 740 0 740 -125 0 -125 0 -2 -528 -3 -528 -374 528 -374 528 -139 0
-138 0 0 -740z"/>
<path d="M3910 3760 l0 -130 235 0 235 0 0 -610 0 -610 125 0 125 0 0 610 0
610 235 0 235 0 0 130 0 130 -595 0 -595 0 0 -130z"/>
<path d="M552 1063 l3 -718 445 -3 c587 -4 660 7 765 112 94 94 128 199 147
449 13 176 0 442 -27 555 -31 131 -102 234 -186 274 -96 46 -127 48 -651 48
l-498 0 2 -717z m1003 443 c81 -34 105 -133 105 -438 0 -242 -12 -331 -51
-395 -38 -62 -49 -63 -444 -63 l-355 0 0 455 0 455 355 0 c287 0 362 -3 390
-14z"/>
<path d="M2290 1060 l0 -720 555 0 555 0 0 135 0 135 -430 0 -430 0 0 170 0
170 410 0 410 0 0 135 0 135 -410 0 -410 0 0 150 0 150 425 0 425 0 0 130 0
130 -550 0 -550 0 0 -720z"/>
<path d="M3732 1063 l3 -718 518 -3 517 -2 0 135 0 135 -390 0 -390 0 0 585 0
585 -130 0 -130 0 2 -717z"/>
</g>
</svg>
