<?xml version="1.0" standalone="no"?>
<!DOCTYPE svg PUBLIC "-//W3C//DTD SVG 20010904//EN"
 "http://www.w3.org/TR/2001/REC-SVG-20010904/DTD/svg10.dtd">
<svg version="1.0" xmlns="http://www.w3.org/2000/svg"
 width="313.000000pt" height="286.000000pt" viewBox="0 0 313.000000 286.000000"
 preserveAspectRatio="xMidYMid meet">
<metadata>
Created by potrace 1.16, written by Peter Selinger 2001-2019
</metadata>
<g transform="translate(0.000000,286.000000) scale(0.100000,-0.100000)"
fill="#000000" stroke="none">
<path d="M1220 1909 c-465 -357 -873 -672 -907 -700 l-63 -50 0 -224 0 -225
945 0 945 0 0 -225 0 -225 210 0 210 0 2 223 3 222 178 3 177 2 0 195 0 195
-177 2 -178 3 -3 728 -2 727 -248 0 -247 0 -845 -651z m918 -306 l-3 -498
-647 -3 c-357 -1 -648 1 -648 5 1 11 1273 991 1288 992 10 1 12 -101 10 -496z"/>
</g>
</svg>
