<?xml version="1.0" standalone="no"?>
<!DOCTYPE svg PUBLIC "-//W3C//DTD SVG 20010904//EN"
 "http://www.w3.org/TR/2001/REC-SVG-20010904/DTD/svg10.dtd">
<svg version="1.0" xmlns="http://www.w3.org/2000/svg"
 width="313.000000pt" height="286.000000pt" viewBox="0 0 313.000000 286.000000"
 preserveAspectRatio="xMidYMid meet">
<metadata>
Created by potrace 1.16, written by Peter Selinger 2001-2019
</metadata>
<g transform="translate(0.000000,286.000000) scale(0.100000,-0.100000)"
fill="#000000" stroke="none">
<path d="M280 1910 l0 -650 199 0 199 0 17 51 c22 64 67 116 125 143 44 20 61
21 628 24 704 3 769 -3 866 -88 60 -53 71 -105 71 -330 -1 -221 -11 -284 -57
-336 -40 -45 -128 -72 -277 -84 -161 -13 -1050 -13 -1147 1 -94 13 -165 47
-192 91 -26 42 -42 137 -42 251 l0 87 -216 0 -217 0 6 -152 c6 -180 25 -276
72 -376 48 -102 119 -174 220 -222 154 -75 160 -75 960 -75 636 0 719 2 801
18 304 58 450 180 501 418 15 71 18 130 17 374 0 266 -2 296 -22 370 -31 113
-66 177 -133 250 -94 100 -225 159 -419 186 -131 19 -1187 19 -1305 0 -67 -11
-125 -29 -212 -68 -10 -4 -13 36 -13 181 l0 186 1015 0 1015 0 0 200 0 200
-1230 0 -1230 0 0 -650z"/>
</g>
</svg>
