<?xml version="1.0" standalone="no"?>
<!DOCTYPE svg PUBLIC "-//W3C//DTD SVG 20010904//EN"
 "http://www.w3.org/TR/2001/REC-SVG-20010904/DTD/svg10.dtd">
<svg version="1.0" xmlns="http://www.w3.org/2000/svg"
 width="313.000000pt" height="286.000000pt" viewBox="0 0 313.000000 286.000000"
 preserveAspectRatio="xMidYMid meet">
<metadata>
Created by potrace 1.16, written by Peter Selinger 2001-2019
</metadata>
<g transform="translate(0.000000,286.000000) scale(0.100000,-0.100000)"
fill="#000000" stroke="none">
<path d="M822 2574 c-300 -51 -471 -187 -538 -429 -13 -46 -18 -116 -21 -293
l-5 -232 214 2 213 3 5 190 c5 186 6 191 35 250 31 63 68 95 134 117 49 16
1174 24 1273 8 82 -12 136 -37 171 -79 45 -54 52 -92 52 -281 0 -201 -8 -227
-82 -268 -72 -39 -163 -51 -733 -92 -587 -43 -664 -50 -801 -80 -205 -44 -336
-132 -413 -279 -65 -124 -69 -151 -73 -514 l-5 -327 1286 0 1286 0 0 200 0
200 -1070 0 -1070 0 0 98 c0 53 5 114 11 135 27 98 133 116 979 172 532 35
702 61 837 126 140 67 219 169 260 334 24 98 24 454 0 570 -49 235 -200 387
-452 457 -78 22 -93 22 -745 24 -536 2 -681 0 -748 -12z"/>
</g>
</svg>
