<?xml version="1.0" standalone="no"?>
<!DOCTYPE svg PUBLIC "-//W3C//DTD SVG 20010904//EN"
 "http://www.w3.org/TR/2001/REC-SVG-20010904/DTD/svg10.dtd">
<svg version="1.0" xmlns="http://www.w3.org/2000/svg"
 width="458.000000pt" height="439.000000pt" viewBox="0 0 458.000000 439.000000"
 preserveAspectRatio="xMidYMid meet">
<metadata>
Created by potrace 1.16, written by Peter Selinger 2001-2019
</metadata>
<g transform="translate(0.000000,439.000000) scale(0.100000,-0.100000)"
fill="#000000" stroke="none">
<path d="M330 2205 l0 -1995 2000 0 2000 0 0 1995 0 1995 -2000 0 -2000 0 0
-1995z m3720 1020 l0 -695 -1020 0 -1020 0 0 -1020 0 -1020 -700 0 -700 0 0
1715 0 1715 1720 0 1720 0 0 -695z m0 -2040 l0 -695 -695 0 -695 0 0 688 c0
379 3 692 7 695 3 4 316 7 695 7 l688 0 0 -695z"/>
</g>
</svg>
