<?xml version="1.0" standalone="no"?>
<!DOCTYPE svg PUBLIC "-//W3C//DTD SVG 20010904//EN"
 "http://www.w3.org/TR/2001/REC-SVG-20010904/DTD/svg10.dtd">
<svg version="1.0" xmlns="http://www.w3.org/2000/svg"
 width="313.000000pt" height="286.000000pt" viewBox="0 0 313.000000 286.000000"
 preserveAspectRatio="xMidYMid meet">
<metadata>
Created by potrace 1.16, written by Peter Selinger 2001-2019
</metadata>
<g transform="translate(0.000000,286.000000) scale(0.100000,-0.100000)"
fill="#000000" stroke="none">
<path d="M920 2609 c-323 -39 -535 -200 -608 -461 -15 -57 -17 -125 -17 -688
0 -557 2 -633 17 -700 50 -214 192 -370 398 -434 147 -47 223 -51 850 -51 717
1 799 9 970 92 140 68 236 192 277 358 24 101 24 489 0 590 -54 220 -190 346
-427 395 -88 18 -139 20 -728 20 -540 0 -644 -2 -710 -16 -69 -14 -176 -58
-209 -86 -11 -8 -13 25 -13 173 0 101 5 202 10 223 15 69 58 117 135 156 l70
35 615 0 c559 0 620 -2 672 -18 66 -20 115 -58 134 -104 10 -22 14 -75 14
-163 l0 -130 216 0 217 0 -6 163 c-8 242 -43 345 -152 452 -69 68 -127 102
-236 139 -163 55 -215 58 -839 62 -316 1 -609 -2 -650 -7z m1303 -1289 c71
-13 127 -40 145 -71 23 -36 36 -217 23 -321 -15 -127 -40 -175 -111 -210 -89
-45 -182 -50 -790 -46 -609 4 -613 5 -690 74 -55 50 -74 112 -74 249 -1 141 9
197 41 235 46 55 122 82 278 100 112 12 1105 4 1178 -10z"/>
</g>
</svg>
