<?xml version="1.0" standalone="no"?>
<!DOCTYPE svg PUBLIC "-//W3C//DTD SVG 20010904//EN"
 "http://www.w3.org/TR/2001/REC-SVG-20010904/DTD/svg10.dtd">
<svg version="1.0" xmlns="http://www.w3.org/2000/svg"
 width="449.000000pt" height="389.000000pt" viewBox="0 0 449.000000 389.000000"
 preserveAspectRatio="xMidYMid meet">
<metadata>
Created by potrace 1.16, written by Peter Selinger 2001-2019
</metadata>
<g transform="translate(0.000000,389.000000) scale(0.100000,-0.100000)"
fill="#000000" stroke="none">
<path d="M870 1845 l0 -1415 1413 2 1412 3 3 1413 2 1412 -1415 0 -1415 0 0
-1415z m2628 988 l-3 -228 -1212 -3 -1213 -2 0 230 0 230 1215 0 1215 0 -2
-227z m2 -1448 l0 -755 -1215 0 -1215 0 0 755 0 755 1215 0 1215 0 0 -755z"/>
</g>
</svg>
