<?xml version="1.0" standalone="no"?>
<!DOCTYPE svg PUBLIC "-//W3C//DTD SVG 20010904//EN"
 "http://www.w3.org/TR/2001/REC-SVG-20010904/DTD/svg10.dtd">
<svg version="1.0" xmlns="http://www.w3.org/2000/svg"
 width="458.000000pt" height="439.000000pt" viewBox="0 0 458.000000 439.000000"
 preserveAspectRatio="xMidYMid meet">
<metadata>
Created by potrace 1.16, written by Peter Selinger 2001-2019
</metadata>
<g transform="translate(0.000000,439.000000) scale(0.100000,-0.100000)"
fill="#000000" stroke="none">
<path d="M312 2273 l3 -1998 1998 -3 1997 -2 0 2000 0 2000 -2000 0 -2000 0 2
-1997z m1678 1017 l0 -700 -700 0 -700 0 0 700 0 700 700 0 700 0 0 -700z
m2040 0 l0 -700 -695 0 -695 0 0 700 0 700 695 0 695 0 0 -700z m0 -2045 l0
-695 -1720 0 -1720 0 0 695 0 695 1720 0 1720 0 0 -695z"/>
</g>
</svg>
