<?xml version="1.0" standalone="no"?>
<!DOCTYPE svg PUBLIC "-//W3C//DTD SVG 20010904//EN"
 "http://www.w3.org/TR/2001/REC-SVG-20010904/DTD/svg10.dtd">
<svg version="1.0" xmlns="http://www.w3.org/2000/svg"
 width="313.000000pt" height="286.000000pt" viewBox="0 0 313.000000 286.000000"
 preserveAspectRatio="xMidYMid meet">
<metadata>
Created by potrace 1.16, written by Peter Selinger 2001-2019
</metadata>
<g transform="translate(0.000000,286.000000) scale(0.100000,-0.100000)"
fill="#000000" stroke="none">
<path d="M1188 2177 c-257 -205 -472 -377 -479 -383 -8 -9 21 -51 108 -162 65
-83 121 -151 124 -152 3 0 167 128 365 285 197 157 362 285 367 285 4 0 7
-405 7 -900 l0 -900 213 2 212 3 3 1148 2 1147 -227 -1 -228 -1 -467 -371z"/>
</g>
</svg>
