<?xml version="1.0" standalone="no"?>
<!DOCTYPE svg PUBLIC "-//W3C//DTD SVG 20010904//EN"
 "http://www.w3.org/TR/2001/REC-SVG-20010904/DTD/svg10.dtd">
<svg version="1.0" xmlns="http://www.w3.org/2000/svg"
 width="473.000000pt" height="460.000000pt" viewBox="0 0 473.000000 460.000000"
 preserveAspectRatio="xMidYMid meet">
<metadata>
Created by potrace 1.16, written by Peter Selinger 2001-2019
</metadata>
<g transform="translate(0.000000,460.000000) scale(0.100000,-0.100000)"
fill="#000000" stroke="none">
<path d="M417 4253 c-4 -3 -7 -903 -7 -2000 l0 -1993 2000 0 2000 0 0 2000 0
2000 -1993 0 c-1097 0 -1997 -3 -2000 -7z m3713 -1343 l0 -1070 -1720 0 -1720
0 0 1070 0 1070 1720 0 1720 0 0 -1070z m0 -2045 l0 -325 -1720 0 -1720 0 0
325 0 325 1720 0 1720 0 0 -325z"/>
</g>
</svg>
