<?xml version="1.0" standalone="no"?>
<!DOCTYPE svg PUBLIC "-//W3C//DTD SVG 20010904//EN"
 "http://www.w3.org/TR/2001/REC-SVG-20010904/DTD/svg10.dtd">
<svg version="1.0" xmlns="http://www.w3.org/2000/svg"
 width="496.000000pt" height="488.000000pt" viewBox="0 0 496.000000 488.000000"
 preserveAspectRatio="xMidYMid meet">
<metadata>
Created by potrace 1.16, written by Peter Selinger 2001-2019
</metadata>
<g transform="translate(0.000000,488.000000) scale(0.100000,-0.100000)"
fill="#000000" stroke="none">
<path d="M1697 3240 c-121 -21 -280 -86 -349 -143 -26 -21 -30 -35 -72 -287
-24 -146 -42 -267 -41 -268 2 -2 34 22 71 53 91 78 199 147 278 178 66 27 201
55 212 44 3 -3 -57 -386 -135 -851 -78 -465 -141 -848 -141 -851 0 -3 109 -4
242 -3 l242 3 137 820 c76 451 141 835 144 853 l6 32 310 0 309 0 -5 -22 c-11
-51 -156 -925 -180 -1088 -35 -238 -43 -434 -21 -520 9 -36 20 -68 25 -73 4
-4 130 -6 279 -5 l272 3 -27 39 c-69 103 -86 255 -54 481 26 180 190 1158 196
1163 14 14 104 22 258 22 97 0 177 3 177 6 0 8 59 362 66 397 l6 27 -1079 -1
c-593 -1 -1100 -5 -1126 -9z"/>
</g>
</svg>
