<?xml version="1.0" standalone="no"?>
<!DOCTYPE svg PUBLIC "-//W3C//DTD SVG 20010904//EN"
 "http://www.w3.org/TR/2001/REC-SVG-20010904/DTD/svg10.dtd">
<svg version="1.0" xmlns="http://www.w3.org/2000/svg"
 width="496.000000pt" height="488.000000pt" viewBox="0 0 496.000000 488.000000"
 preserveAspectRatio="xMidYMid meet">
<metadata>
Created by potrace 1.16, written by Peter Selinger 2001-2019
</metadata>
<g transform="translate(0.000000,488.000000) scale(0.100000,-0.100000)"
fill="#000000" stroke="none">
<path d="M457 4463 c-4 -3 -7 -903 -7 -2000 l0 -1993 2000 0 2000 0 0 2000 0
2000 -1993 0 c-1097 0 -1997 -3 -2000 -7z m1663 -1993 l0 -1720 -695 0 -695 0
0 1720 0 1720 695 0 695 0 0 -1720z m2050 1025 l0 -695 -700 0 -700 0 0 695 0
695 700 0 700 0 0 -695z m0 -2050 l0 -695 -700 0 -700 0 0 695 0 695 700 0
700 0 0 -695z"/>
</g>
</svg>
