<?xml version="1.0" standalone="no"?>
<!DOCTYPE svg PUBLIC "-//W3C//DTD SVG 20010904//EN"
 "http://www.w3.org/TR/2001/REC-SVG-20010904/DTD/svg10.dtd">
<svg version="1.0" xmlns="http://www.w3.org/2000/svg"
 width="362.000000pt" height="356.000000pt" viewBox="0 0 362.000000 356.000000"
 preserveAspectRatio="xMidYMid meet">
<metadata>
Created by potrace 1.16, written by Peter Selinger 2001-2019
</metadata>
<g transform="translate(0.000000,356.000000) scale(0.100000,-0.100000)"
fill="#000000" stroke="none">
<path d="M1830 2938 c-72 -242 -239 -454 -566 -716 -270 -217 -368 -347 -396
-529 -60 -388 390 -639 742 -413 64 41 162 147 201 216 17 30 33 54 36 54 13
0 -11 -212 -32 -297 -34 -134 -84 -223 -174 -313 -122 -121 -257 -179 -472
-201 -57 -5 -105 -11 -106 -13 -2 -1 -6 -17 -9 -34 l-6 -32 812 0 813 0 -7 32
c-8 41 -14 44 -99 51 -110 10 -233 43 -327 89 -66 32 -102 58 -161 117 -85 86
-127 160 -159 287 -19 74 -46 301 -37 310 2 3 23 -24 46 -59 76 -118 193 -221
291 -258 184 -70 379 -32 509 98 84 84 114 153 119 274 10 222 -70 344 -438
669 -182 161 -307 289 -373 381 -52 74 -125 223 -153 312 -10 31 -20 57 -23
57 -3 0 -17 -37 -31 -82z"/>
</g>
</svg>
