<?xml version="1.0" standalone="no"?>
<!DOCTYPE svg PUBLIC "-//W3C//DTD SVG 20010904//EN"
 "http://www.w3.org/TR/2001/REC-SVG-20010904/DTD/svg10.dtd">
<svg version="1.0" xmlns="http://www.w3.org/2000/svg"
 width="496.000000pt" height="488.000000pt" viewBox="0 0 496.000000 488.000000"
 preserveAspectRatio="xMidYMid meet">
<metadata>
Created by potrace 1.16, written by Peter Selinger 2001-2019
</metadata>
<g transform="translate(0.000000,488.000000) scale(0.100000,-0.100000)"
fill="#000000" stroke="none">
<path d="M1938 4288 c-3 -7 -52 -230 -109 -495 l-104 -483 -387 0 -388 0 0
-285 0 -285 325 0 325 0 -5 -22 c-10 -44 -155 -711 -155 -715 0 -2 -110 -3
-245 -3 l-245 0 0 -280 0 -280 185 0 185 0 -7 -27 c-3 -16 -52 -237 -108 -493
l-101 -465 305 -3 c167 -1 306 -1 308 1 2 2 52 225 110 496 l107 491 304 0
c284 0 303 -1 298 -17 -3 -10 -48 -223 -101 -473 -53 -250 -99 -465 -102 -477
l-5 -23 306 0 c168 0 306 3 306 8 0 4 47 225 105 490 58 266 105 485 105 487
0 3 178 5 395 5 l395 0 -2 277 -3 278 -327 3 c-304 2 -328 4 -327 20 0 9 35
175 77 367 l77 350 250 5 250 5 0 280 0 280 -188 3 -187 2 7 28 c40 161 208
949 203 955 -3 4 -145 6 -315 5 l-309 -3 -82 -385 c-45 -212 -92 -433 -104
-492 l-23 -108 -298 0 c-233 0 -299 3 -299 13 0 9 180 845 205 955 l5 22 -304
0 c-234 0 -305 -3 -308 -12z m872 -1561 c0 -12 -116 -573 -141 -679 l-11 -48
-299 0 c-248 0 -299 2 -299 14 0 8 34 171 75 362 41 192 75 352 75 357 0 4
135 7 300 7 242 0 300 -3 300 -13z"/>
</g>
</svg>
