<?xml version="1.0" standalone="no"?>
<!DOCTYPE svg PUBLIC "-//W3C//DTD SVG 20010904//EN"
 "http://www.w3.org/TR/2001/REC-SVG-20010904/DTD/svg10.dtd">
<svg version="1.0" xmlns="http://www.w3.org/2000/svg"
 width="496.000000pt" height="522.000000pt" viewBox="0 0 496.000000 522.000000"
 preserveAspectRatio="xMidYMid meet">
<metadata>
Created by potrace 1.16, written by Peter Selinger 2001-2019
</metadata>
<g transform="translate(0.000000,522.000000) scale(0.100000,-0.100000)"
fill="#000000" stroke="none">
<path d="M397 4633 c-4 -3 -7 -903 -7 -2000 l0 -1993 2000 0 2000 0 0 2000 0
2000 -1993 0 c-1097 0 -1997 -3 -2000 -7z m3713 -738 l0 -465 -1720 0 -1720 0
0 465 0 465 1720 0 1720 0 0 -465z m0 -2045 l0 -930 -1720 0 -1720 0 0 930 0
930 1720 0 1720 0 0 -930z"/>
</g>
</svg>
