<?xml version="1.0" standalone="no"?>
<!DOCTYPE svg PUBLIC "-//W3C//DTD SVG 20010904//EN"
 "http://www.w3.org/TR/2001/REC-SVG-20010904/DTD/svg10.dtd">
<svg version="1.0" xmlns="http://www.w3.org/2000/svg"
 width="473.000000pt" height="460.000000pt" viewBox="0 0 473.000000 460.000000"
 preserveAspectRatio="xMidYMid meet">
<metadata>
Created by potrace 1.16, written by Peter Selinger 2001-2019
</metadata>
<g transform="translate(0.000000,460.000000) scale(0.100000,-0.100000)"
fill="#000000" stroke="none">
<path d="M310 2430 l0 -2000 1995 0 1995 0 0 2000 0 2000 -1995 0 -1995 0 0
-2000z m1555 1713 c-63 -16 -222 -71 -298 -104 -428 -185 -792 -577 -949
-1020 l-33 -94 -3 600 c-1 330 0 606 3 613 3 9 142 12 652 11 356 -1 639 -4
628 -6z m2154 -645 l0 -653 -22 75 c-145 482 -481 878 -932 1095 -96 46 -204
87 -325 123 -25 7 155 10 623 11 l657 1 -1 -652z m1 -2143 l0 -645 -637 0
-638 1 114 39 c452 154 812 469 1025 895 52 104 126 303 126 339 0 9 2 16 5
16 3 0 5 -290 5 -645z m-3399 470 c131 -372 417 -716 765 -921 117 -69 200
-106 344 -155 l115 -39 -632 0 -633 0 0 607 c0 333 2 604 5 602 2 -3 18 -45
36 -94z"/>
</g>
</svg>
