<?xml version="1.0" standalone="no"?>
<!DOCTYPE svg PUBLIC "-//W3C//DTD SVG 20010904//EN"
 "http://www.w3.org/TR/2001/REC-SVG-20010904/DTD/svg10.dtd">
<svg version="1.0" xmlns="http://www.w3.org/2000/svg"
 width="296.000000pt" height="229.000000pt" viewBox="0 0 296.000000 229.000000"
 preserveAspectRatio="xMidYMid meet">
<metadata>
Created by potrace 1.16, written by Peter Selinger 2001-2019
</metadata>
<g transform="translate(0.000000,229.000000) scale(0.100000,-0.100000)"
fill="#000000" stroke="none">
<path d="M503 1999 c-33 -16 -48 -33 -70 -77 -28 -56 -28 -60 -28 -242 0 -200
7 -237 53 -292 44 -52 72 -58 280 -58 175 0 191 2 232 23 57 28 76 67 85 170
l7 77 -60 0 -60 0 -7 -60 c-4 -34 -13 -65 -22 -72 -12 -9 -61 -13 -180 -13
-216 0 -203 -14 -203 220 0 234 -13 220 205 220 191 0 195 -2 195 -87 l0 -48
61 0 62 0 -7 77 c-7 83 -25 124 -69 157 -26 19 -43 21 -230 24 -189 2 -205 1
-244 -19z"/>
<path d="M1190 1680 l0 -340 255 0 255 0 0 60 0 60 -192 2 -193 3 -3 278 -2
277 -60 0 -60 0 0 -340z"/>
<path d="M1890 1661 l0 -341 65 0 65 0 0 120 0 120 168 0 c117 0 172 -4 180
-12 8 -8 12 -49 12 -120 l0 -108 60 0 60 0 0 120 c0 90 -4 129 -16 151 -14 28
-14 33 3 57 15 22 18 47 18 139 0 121 -7 141 -69 187 -26 20 -43 21 -287 24
l-259 3 0 -340z m480 199 c10 -6 15 -28 15 -75 0 -94 -1 -95 -202 -95 l-163 0
0 90 0 90 168 0 c92 0 174 -5 182 -10z"/>
<path d="M943 910 c-18 -10 -39 -33 -48 -50 -47 -91 -45 -471 3 -554 33 -57
69 -67 222 -64 155 4 175 11 206 80 17 38 19 68 19 268 0 202 -2 229 -19 264
-33 66 -61 76 -216 76 -116 0 -139 -3 -167 -20z m297 -136 c14 -37 13 -347 -2
-379 -11 -25 -12 -25 -129 -25 -107 0 -119 2 -129 19 -6 12 -10 94 -10 196 0
102 4 184 10 196 10 17 22 19 131 19 119 0 120 0 129 -26z"/>
<path d="M270 585 l0 -335 55 0 55 0 0 140 0 140 120 0 120 0 0 -140 0 -140
50 0 50 0 0 335 0 335 -50 0 -50 0 0 -130 0 -130 -120 0 -120 0 0 130 0 130
-55 0 -55 0 0 -335z"/>
<path d="M1490 585 l0 -335 50 0 50 0 0 202 c0 111 3 198 7 194 4 -4 40 -93
79 -199 l72 -192 38 0 39 0 75 199 75 200 3 -202 2 -202 50 0 50 0 0 335 0
335 -59 0 c-47 0 -60 -4 -66 -17 -3 -10 -40 -108 -82 -218 -41 -110 -79 -204
-83 -208 -4 -4 -45 92 -91 215 l-85 223 -62 3 -62 3 0 -336z"/>
<path d="M2230 585 l0 -335 195 0 195 0 0 60 0 59 -142 3 -143 3 -3 78 -3 77
136 0 135 0 0 65 0 65 -135 0 -135 0 0 70 0 70 145 0 145 0 0 60 0 60 -195 0
-195 0 0 -335z"/>
</g>
</svg>
