<?xml version="1.0" standalone="no"?>
<!DOCTYPE svg PUBLIC "-//W3C//DTD SVG 20010904//EN"
 "http://www.w3.org/TR/2001/REC-SVG-20010904/DTD/svg10.dtd">
<svg version="1.0" xmlns="http://www.w3.org/2000/svg"
 width="435.000000pt" height="444.000000pt" viewBox="0 0 435.000000 444.000000"
 preserveAspectRatio="xMidYMid meet">
<metadata>
Created by potrace 1.16, written by Peter Selinger 2001-2019
</metadata>
<g transform="translate(0.000000,444.000000) scale(0.100000,-0.100000)"
fill="#000000" stroke="none">
<path d="M130 2190 l0 -2000 2000 0 2000 0 0 2000 0 2000 -2000 0 -2000 0 0
-2000z m1070 1560 l0 -160 -230 0 -230 0 0 160 0 160 230 0 230 0 0 -160z
m700 0 l0 -160 -115 0 -115 0 0 160 0 160 115 0 115 0 0 -160z m1950 -1560 l0
-1720 -840 0 -840 0 0 1720 0 1720 840 0 840 0 0 -1720z m-3110 1160 l0 -230
230 0 230 0 0 -230 0 -230 -230 0 -230 0 0 230 0 230 -160 0 -160 0 0 230 0
230 160 0 160 0 0 -230z m930 0 l0 -230 115 0 115 0 0 -230 0 -230 -115 0
-115 0 0 230 0 230 -232 2 -233 3 -3 228 -2 227 235 0 235 0 0 -230z m-930
-930 l0 -230 230 0 230 0 0 -230 0 -230 -230 0 -230 0 0 230 0 230 -160 0
-160 0 0 230 0 230 160 0 160 0 0 -230z m930 0 l0 -230 115 0 115 0 0 -230 0
-230 -115 0 -115 0 0 230 0 230 -232 2 -233 3 -3 228 -2 227 235 0 235 0 0
-230z m-930 -930 l0 -230 230 0 230 0 0 -230 0 -230 -230 0 -230 0 0 230 0
230 -160 0 -160 0 0 230 0 230 160 0 160 0 0 -230z m930 0 l0 -230 115 0 115
0 0 -230 0 -230 -115 0 -115 0 0 230 0 230 -232 2 -233 3 -3 228 -2 227 235 0
235 0 0 -230z m-930 -860 l0 -160 -160 0 -160 0 0 160 0 160 160 0 160 0 0
-160z m930 0 l0 -160 -232 2 -233 3 -3 158 -3 157 236 0 235 0 0 -160z"/>
</g>
</svg>
