<?xml version="1.0" standalone="no"?>
<!DOCTYPE svg PUBLIC "-//W3C//DTD SVG 20010904//EN"
 "http://www.w3.org/TR/2001/REC-SVG-20010904/DTD/svg10.dtd">
<svg version="1.0" xmlns="http://www.w3.org/2000/svg"
 width="458.000000pt" height="439.000000pt" viewBox="0 0 458.000000 439.000000"
 preserveAspectRatio="xMidYMid meet">
<metadata>
Created by potrace 1.16, written by Peter Selinger 2001-2019
</metadata>
<g transform="translate(0.000000,439.000000) scale(0.100000,-0.100000)"
fill="#000000" stroke="none">
<path d="M1969 2958 c-294 -324 -549 -607 -567 -628 l-32 -38 566 -644 c311
-354 569 -643 573 -643 4 0 71 71 150 159 l143 158 -30 32 c-16 17 -197 220
-402 451 -205 231 -386 434 -402 451 l-29 31 446 469 c244 258 444 472 442
476 -1 4 -74 76 -163 161 l-160 155 -535 -590z"/>
</g>
</svg>
