<?xml version="1.0" standalone="no"?>
<!DOCTYPE svg PUBLIC "-//W3C//DTD SVG 20010904//EN"
 "http://www.w3.org/TR/2001/REC-SVG-20010904/DTD/svg10.dtd">
<svg version="1.0" xmlns="http://www.w3.org/2000/svg"
 width="642.000000pt" height="329.000000pt" viewBox="0 0 642.000000 329.000000"
 preserveAspectRatio="xMidYMid meet">
<metadata>
Created by potrace 1.16, written by Peter Selinger 2001-2019
</metadata>
<g transform="translate(0.000000,329.000000) scale(0.100000,-0.100000)"
fill="#000000" stroke="none">
<path d="M792 2969 c-119 -11 -177 -33 -232 -88 -57 -57 -75 -114 -74 -231 1
-65 7 -98 23 -135 28 -63 45 -82 101 -110 80 -40 141 -47 485 -54 359 -8 376
-11 395 -64 26 -76 3 -164 -52 -194 -30 -16 -63 -18 -358 -18 -294 0 -328 2
-358 18 -40 22 -52 51 -52 128 l0 59 -96 0 -97 0 7 -92 c11 -148 54 -212 173
-259 55 -22 74 -23 366 -27 189 -2 339 0 390 7 204 27 292 140 274 352 -11
126 -61 196 -174 240 -55 21 -75 23 -408 28 -377 7 -395 9 -423 61 -8 15 -11
48 -9 84 3 51 8 63 34 87 43 37 84 41 413 37 346 -4 350 -5 350 -124 l0 -54
96 0 97 0 -5 83 c-12 223 -136 279 -608 276 -96 -1 -212 -5 -258 -10z"/>
<path d="M1792 2453 l3 -528 98 -3 97 -3 0 231 0 230 420 0 420 0 0 -230 0
-230 95 0 95 0 0 530 0 530 -95 0 -95 0 -2 -212 -3 -213 -417 -3 -418 -2 0
215 0 215 -100 0 -100 0 2 -527z"/>
<path d="M3230 2440 l0 -530 95 0 95 0 0 530 0 530 -95 0 -95 0 0 -530z"/>
<path d="M3590 2440 l0 -530 95 0 95 0 2 228 3 227 388 3 387 2 0 85 0 85
-390 0 -390 0 0 125 0 125 408 2 407 3 0 85 0 85 -502 3 -503 2 0 -530z"/>
<path d="M4740 2880 l0 -90 250 0 250 0 0 -440 0 -440 100 0 100 0 0 440 0
440 250 0 250 0 0 90 0 90 -600 0 -600 0 0 -90z"/>
<path d="M1850 1576 c-112 -25 -186 -85 -224 -182 -17 -43 -20 -82 -24 -299
-3 -164 0 -273 8 -316 22 -124 93 -209 204 -246 42 -14 110 -17 394 -21 459
-5 550 8 635 96 82 84 101 185 95 496 -5 246 -13 285 -73 368 -38 52 -109 92
-194 108 -78 15 -752 12 -821 -4z m813 -180 c24 -12 45 -33 58 -58 19 -37 20
-56 17 -298 -3 -292 -4 -295 -84 -335 -37 -19 -59 -20 -384 -20 -319 0 -349 1
-388 19 -26 12 -51 33 -65 55 -21 35 -22 45 -22 291 0 278 4 299 60 336 45 30
86 33 430 31 311 -2 343 -4 378 -21z"/>
<path d="M3445 1576 c-115 -28 -189 -97 -222 -204 -15 -48 -18 -97 -18 -317 0
-286 7 -334 56 -408 35 -53 86 -89 160 -113 45 -14 106 -18 359 -21 182 -3
343 -1 399 6 209 23 280 106 281 324 l0 77 -94 0 -94 0 -3 -85 c-4 -76 -7 -87
-31 -111 -23 -24 -38 -28 -130 -36 -56 -6 -211 -8 -343 -6 -269 4 -298 11
-342 77 -22 33 -23 41 -23 290 0 287 4 306 71 346 32 19 52 20 364 20 366 0
382 -2 409 -60 9 -19 16 -59 16 -94 l0 -61 91 0 91 0 -4 103 c-5 118 -23 165
-85 216 -77 63 -90 65 -493 68 -266 1 -379 -2 -415 -11z"/>
<path d="M462 1053 l3 -528 483 -3 482 -2 0 90 0 90 -385 0 -385 0 0 440 0
440 -100 0 -100 0 2 -527z"/>
<path d="M4730 1050 l0 -530 95 0 95 0 0 235 0 235 58 0 57 0 345 -235 345
-234 126 -1 c114 0 128 2 144 20 11 13 15 24 9 29 -5 5 -177 120 -382 256
l-374 247 352 235 c343 228 351 235 334 254 -15 17 -31 19 -139 19 l-121 0
-310 -210 -309 -209 -67 -1 -68 0 0 210 0 210 -95 0 -95 0 0 -530z"/>
</g>
</svg>
