<?xml version="1.0" standalone="no"?>
<!DOCTYPE svg PUBLIC "-//W3C//DTD SVG 20010904//EN"
 "http://www.w3.org/TR/2001/REC-SVG-20010904/DTD/svg10.dtd">
<svg version="1.0" xmlns="http://www.w3.org/2000/svg"
 width="507.000000pt" height="502.000000pt" viewBox="0 0 507.000000 502.000000"
 preserveAspectRatio="xMidYMid meet">
<metadata>
Created by potrace 1.16, written by Peter Selinger 2001-2019
</metadata>
<g transform="translate(0.000000,502.000000) scale(0.100000,-0.100000)"
fill="#000000" stroke="none">
<path d="M1998 4388 c-335 -171 -608 -316 -608 -323 0 -11 77 -196 85 -204 2
-2 106 49 230 113 124 64 228 116 230 116 3 0 5 -126 5 -280 l0 -280 135 0
135 0 2 347 3 347 197 92 197 93 185 -81 186 -81 2 -356 3 -356 138 -3 139 -3
-8 291 c-4 159 -4 290 0 290 4 0 108 -57 232 -126 124 -70 226 -125 228 -123
18 19 96 193 89 199 -16 16 -1174 640 -1186 640 -7 0 -285 -141 -619 -312z"/>
<path d="M604 3234 c-91 -33 -158 -120 -191 -250 -15 -59 -18 -119 -18 -429 0
-310 3 -370 18 -429 35 -137 104 -223 204 -252 42 -12 106 -15 350 -12 l298 3
54 30 c107 59 139 136 148 358 l6 147 -106 0 -107 0 -1 -77 c0 -114 -12 -173
-39 -195 -20 -16 -46 -18 -280 -18 l-258 0 -26 30 c-44 52 -47 88 -44 438 3
287 5 331 20 362 31 61 42 64 258 68 107 1 222 -1 254 -5 86 -12 98 -32 104
-173 l5 -110 99 0 100 0 -4 153 c-6 168 -18 218 -69 280 -17 20 -52 49 -77 65
l-47 27 -305 2 c-249 2 -313 -1 -346 -13z"/>
<path d="M2827 3235 c-114 -32 -178 -105 -207 -236 -15 -67 -8 -315 10 -369
17 -51 61 -111 100 -137 69 -47 119 -55 393 -62 252 -6 259 -7 277 -28 33 -41
37 -169 9 -244 -17 -45 -43 -49 -298 -49 -302 0 -285 -9 -289 154 l-4 116
-104 0 -104 0 0 -122 c0 -175 23 -249 97 -320 71 -69 87 -72 380 -76 289 -4
347 3 412 46 93 63 131 154 138 332 10 250 -47 371 -199 428 -34 12 -100 17
-303 21 -264 6 -295 11 -309 47 -10 26 -7 169 5 203 6 17 23 38 38 45 36 18
232 27 375 17 149 -11 151 -13 161 -141 l7 -90 106 0 105 0 -6 113 c-7 125
-24 196 -62 247 -30 40 -93 85 -144 102 -55 18 -522 21 -584 3z"/>
<path d="M1530 2556 l0 -686 105 0 105 0 2 248 3 247 240 3 c132 2 255 0 273
-3 55 -10 62 -41 62 -285 l0 -210 110 0 110 0 0 183 c-1 251 -15 344 -61 408
-10 13 -8 22 9 43 46 60 57 118 55 306 -2 258 -33 339 -150 397 l-58 28 -402
3 -403 3 0 -685z m772 406 c22 -21 23 -30 23 -158 l0 -136 -28 -24 -28 -24
-265 0 -264 0 0 185 0 186 270 -3 c265 -3 270 -3 292 -26z"/>
<path d="M3710 2556 l0 -686 110 0 110 0 0 250 0 250 254 0 c140 0 266 -4 280
-10 38 -14 46 -63 46 -287 l0 -203 105 0 105 0 0 228 c0 243 -8 302 -50 355
-13 16 -16 28 -10 32 6 4 23 30 37 58 26 49 28 61 31 220 6 243 -14 332 -90
404 -71 67 -70 67 -520 71 l-408 3 0 -685z m781 405 c17 -20 19 -40 19 -158 0
-129 -1 -135 -25 -158 l-24 -25 -266 0 -265 0 0 185 0 186 271 -3 271 -3 19
-24z"/>
<path d="M1920 1150 c0 -154 -3 -280 -6 -280 -4 0 -107 51 -230 114 -195 100
-225 112 -233 98 -35 -67 -82 -195 -75 -201 5 -5 283 -148 617 -319 l608 -311
592 321 c326 176 594 323 597 325 2 2 -18 49 -45 103 l-50 100 -223 -125
c-123 -69 -227 -125 -231 -125 -5 0 -6 131 -3 292 l5 291 -99 -6 c-54 -4 -116
-7 -136 -7 l-38 0 -1 -207 c-1 -115 -4 -275 -8 -357 l-6 -149 -181 -79 -182
-80 -193 90 c-157 73 -195 94 -200 113 -4 13 -7 168 -8 345 l-1 321 -77 7
c-42 3 -102 6 -135 6 l-58 0 0 -280z"/>
</g>
</svg>
