<?xml version="1.0" standalone="no"?>
<!DOCTYPE svg PUBLIC "-//W3C//DTD SVG 20010904//EN"
 "http://www.w3.org/TR/2001/REC-SVG-20010904/DTD/svg10.dtd">
<svg version="1.0" xmlns="http://www.w3.org/2000/svg"
 width="496.000000pt" height="488.000000pt" viewBox="0 0 496.000000 488.000000"
 preserveAspectRatio="xMidYMid meet">
<metadata>
Created by potrace 1.16, written by Peter Selinger 2001-2019
</metadata>
<g transform="translate(0.000000,488.000000) scale(0.100000,-0.100000)"
fill="#000000" stroke="none">
<path d="M480 2420 l0 -2000 1994 0 1994 0 4 998 c2 548 2 1448 0 2000 l-4
1002 -1994 0 -1994 0 0 -2000z m1670 1025 l0 -695 -700 0 -700 0 0 695 0 695
700 0 700 0 0 -695z m2050 0 l0 -695 -700 0 -700 0 0 695 0 695 700 0 700 0 0
-695z m-2050 -2050 l0 -695 -700 0 -700 0 0 695 0 695 700 0 700 0 0 -695z
m2048 3 l-3 -693 -697 -3 -698 -2 0 695 0 695 700 0 700 0 -2 -692z"/>
</g>
</svg>
