<?xml version="1.0" standalone="no"?>
<!DOCTYPE svg PUBLIC "-//W3C//DTD SVG 20010904//EN"
 "http://www.w3.org/TR/2001/REC-SVG-20010904/DTD/svg10.dtd">
<svg version="1.0" xmlns="http://www.w3.org/2000/svg"
 width="458.000000pt" height="439.000000pt" viewBox="0 0 458.000000 439.000000"
 preserveAspectRatio="xMidYMid meet">
<metadata>
Created by potrace 1.16, written by Peter Selinger 2001-2019
</metadata>
<g transform="translate(0.000000,439.000000) scale(0.100000,-0.100000)"
fill="#000000" stroke="none">
<path d="M2075 3367 c-127 -248 -297 -583 -379 -744 l-148 -294 26 -39 26 -40
226 0 226 0 -6 -692 c-4 -381 -9 -764 -12 -850 l-6 -158 260 0 c143 0 272 3
288 6 l29 6 -4 839 -3 839 246 0 c135 0 246 2 246 5 0 4 -779 1567 -784 1572
0 1 -105 -202 -231 -450z"/>
</g>
</svg>
